<svg width="47" height="46" viewBox="0 0 47 46" fill="none" xmlns="http://www.w3.org/2000/svg">
<path fill-rule="evenodd" clip-rule="evenodd" d="M29 17C29 23.6274 23.6274 29 17 29C10.3726 29 5 23.6274 5 17C5 10.3726 10.3726 5 17 5C23.6274 5 29 10.3726 29 17ZM27.0926 30.6813C24.2699 32.767 20.779 34 17 34C7.61116 34 0 26.3888 0 17C0 7.61116 7.61116 0 17 0C26.3888 0 34 7.61116 34 17C34 20.4419 32.9771 23.6449 31.2187 26.3216L44.262 39.4222L46.3786 41.5482L42.1267 45.7815L40.01 43.6555L27.0926 30.6813Z" fill="black"/>
</svg>
