<svg width="98" height="22" viewBox="0 0 98 22" fill="none" xmlns="http://www.w3.org/2000/svg">
<path d="M0.989973 9.68548C0.432257 10.2432 0.432257 11.1474 0.989973 11.7051L10.0785 20.7937C10.6362 21.3514 11.5405 21.3514 12.0982 20.7937C12.6559 20.236 12.6559 19.3317 12.0982 18.774L4.01949 10.6953L12.0982 2.61662C12.6559 2.0589 12.6559 1.15466 12.0982 0.596944C11.5405 0.0392265 10.6362 0.0392265 10.0785 0.596944L0.989973 9.68548ZM30.5601 9.26719L1.99981 9.26719V12.1234L30.5601 12.1234V9.26719Z" fill="black"/>
<path d="M97.2586 11.7052C97.8163 11.1474 97.8163 10.2432 97.2586 9.68548L88.17 0.596946C87.6123 0.0392283 86.7081 0.0392282 86.1504 0.596945C85.5926 1.15466 85.5926 2.0589 86.1504 2.61662L94.229 10.6953L86.1504 18.774C85.5926 19.3317 85.5926 20.236 86.1504 20.7937C86.7081 21.3514 87.6123 21.3514 88.17 20.7937L97.2586 11.7052ZM67.6885 12.1234L96.2487 12.1234L96.2487 9.26719L67.6885 9.26719L67.6885 12.1234Z" fill="black"/>
</svg>
