<svg width="9" height="32" viewBox="0 0 9 32" fill="none" xmlns="http://www.w3.org/2000/svg">
<path d="M8.9668 16.1211C8.9668 18.0664 8.7793 19.9648 8.4043 21.8164C8.0293 23.668 7.44922 25.4258 6.66406 27.0898C5.89062 28.7539 4.89453 30.2891 3.67578 31.6953H0.125C1.22656 30.207 2.15234 28.6133 2.90234 26.9141C3.65234 25.2148 4.21484 23.4512 4.58984 21.623C4.96484 19.7949 5.15234 17.9492 5.15234 16.0859C5.15234 14.1875 4.95898 12.3125 4.57227 10.4609C4.19727 8.60938 3.63477 6.82812 2.88477 5.11719C2.13477 3.39453 1.20312 1.78906 0.0898438 0.300781H3.67578C4.89453 1.74219 5.89062 3.3125 6.66406 5.01172C7.44922 6.71094 8.0293 8.49805 8.4043 10.373C8.7793 12.2363 8.9668 14.1523 8.9668 16.1211Z" fill="black"/>
</svg>
