<svg width="10" height="32" viewBox="0 0 10 32" fill="none" xmlns="http://www.w3.org/2000/svg">
<path d="M0.441406 16.1387C0.441406 14.1699 0.628906 12.248 1.00391 10.373C1.39062 8.49805 1.97656 6.71094 2.76172 5.01172C3.54688 3.3125 4.53711 1.74219 5.73242 0.300781H9.33594C7.66016 2.53906 6.39453 5.01758 5.53906 7.73633C4.69531 10.4551 4.27344 13.2441 4.27344 16.1035C4.27344 17.9668 4.46094 19.8125 4.83594 21.6406C5.21094 23.4688 5.77344 25.2266 6.52344 26.9141C7.27344 28.6133 8.19922 30.207 9.30078 31.6953H5.73242C4.53711 30.2891 3.54688 28.7539 2.76172 27.0898C1.97656 25.4258 1.39062 23.668 1.00391 21.8164C0.628906 19.9648 0.441406 18.0723 0.441406 16.1387Z" fill="black"/>
</svg>
