<svg width="396" height="285" viewBox="0 0 396 285" fill="none" xmlns="http://www.w3.org/2000/svg">
<path fill-rule="evenodd" clip-rule="evenodd" d="M380.963 283C388.143 283 393.963 277.18 393.963 270V81.0415C393.963 73.8618 388.143 68.0415 380.963 68.0415H364.507L389.702 1.99988C375.768 14.3058 350.767 43.5154 330.454 68.0415L15 68.0415C7.82031 68.0415 2 73.8618 2 81.0415V270C2 277.18 7.82031 283 15 283L380.963 283Z" fill="#D1D9FF"/>
<path d="M364.507 68.0415L363.106 67.5068L362.329 69.5415H364.507V68.0415ZM389.702 1.99988L391.104 2.53455L388.709 0.87558L389.702 1.99988ZM330.454 68.0415V69.5415H331.159L331.609 68.9983L330.454 68.0415ZM392.463 270C392.463 276.351 387.314 281.5 380.963 281.5V284.5C388.971 284.5 395.463 278.008 395.463 270H392.463ZM392.463 81.0415V270H395.463V81.0415H392.463ZM380.963 69.5415C387.314 69.5415 392.463 74.6902 392.463 81.0415H395.463C395.463 73.0333 388.971 66.5415 380.963 66.5415V69.5415ZM364.507 69.5415H380.963V66.5415H364.507V69.5415ZM388.301 1.46521L363.106 67.5068L365.909 68.5761L391.104 2.53455L388.301 1.46521ZM331.609 68.9983C351.947 44.4418 376.868 15.3358 390.695 3.12418L388.709 0.87558C374.669 13.2757 349.586 42.5891 329.299 67.0847L331.609 68.9983ZM15 69.5415L330.454 69.5415V66.5415L15 66.5415V69.5415ZM3.5 81.0415C3.5 74.6902 8.64874 69.5415 15 69.5415V66.5415C6.99188 66.5415 0.5 73.0333 0.5 81.0415H3.5ZM3.5 270V81.0415H0.5V270H3.5ZM15 281.5C8.64874 281.5 3.5 276.351 3.5 270H0.5C0.5 278.008 6.99188 284.5 15 284.5V281.5ZM380.963 281.5L15 281.5V284.5L380.963 284.5V281.5Z" fill="black"/>
</svg>
