<svg width="390" height="286" viewBox="0 0 390 286" fill="none" xmlns="http://www.w3.org/2000/svg">
<path fill-rule="evenodd" clip-rule="evenodd" d="M375 2C382.18 2 388 7.8203 388 15V205.149C388 212.328 382.18 218.149 375 218.149H358.992L383.804 284.556C370.082 272.182 345.461 242.81 325.457 218.149L15 218.149C7.82031 218.149 2 212.328 2 205.149V15C2 7.8203 7.82031 2 15 2L375 2Z" fill="#D1D9FF"/>
<path d="M358.992 218.149L357.587 218.674L356.83 216.649H358.992V218.149ZM383.804 284.556L385.209 284.031L382.8 285.67L383.804 284.556ZM325.457 218.149V216.649H326.172L326.622 217.204L325.457 218.149ZM386.5 15C386.5 8.64873 381.351 3.5 375 3.5V0.5C383.008 0.5 389.5 6.99188 389.5 15H386.5ZM386.5 205.149V15H389.5V205.149H386.5ZM375 216.649C381.351 216.649 386.5 211.5 386.5 205.149H389.5C389.5 213.157 383.008 219.649 375 219.649V216.649ZM358.992 216.649H375V219.649H358.992V216.649ZM382.399 285.081L357.587 218.674L360.397 217.624L385.209 284.031L382.399 285.081ZM326.622 217.204C346.651 241.896 371.192 271.163 384.809 283.442L382.8 285.67C368.972 273.201 344.271 243.725 324.292 219.094L326.622 217.204ZM15 216.649L325.457 216.649V219.649L15 219.649V216.649ZM3.5 205.149C3.5 211.5 8.64874 216.649 15 216.649V219.649C6.99188 219.649 0.5 213.157 0.5 205.149H3.5ZM3.5 15V205.149H0.5V15H3.5ZM15 3.5C8.64874 3.5 3.5 8.64873 3.5 15H0.5C0.5 6.99187 6.99188 0.5 15 0.5V3.5ZM375 3.5L15 3.5V0.5L375 0.5V3.5Z" fill="black"/>
</svg>
