<svg width="427" height="277" viewBox="0 0 427 277" fill="none" xmlns="http://www.w3.org/2000/svg">
<path fill-rule="evenodd" clip-rule="evenodd" d="M15 275C7.8203 275 2 269.18 2 262L2 79.1613C2 71.9816 7.8203 66.1613 15 66.1613H33.7853L6.59759 2.0004C21.6336 13.9559 48.6123 42.3336 70.5316 66.1613L411.963 66.1613C419.143 66.1613 424.963 71.9816 424.963 79.1613V262C424.963 269.18 419.143 275 411.963 275L15 275Z" fill="white"/>
<path d="M33.7853 66.1613L35.1665 65.5761L36.0501 67.6613H33.7853V66.1613ZM6.59759 2.0004L5.21647 2.58563L7.53114 0.826294L6.59759 2.0004ZM70.5316 66.1613V67.6613H69.8733L69.4276 67.1768L70.5316 66.1613ZM3.5 262C3.5 268.351 8.64872 273.5 15 273.5V276.5C6.99187 276.5 0.5 270.008 0.5 262H3.5ZM3.5 79.1613L3.5 262H0.5L0.5 79.1613H3.5ZM15 67.6613C8.64872 67.6613 3.5 72.81 3.5 79.1613H0.5C0.5 71.1532 6.99187 64.6613 15 64.6613L15 67.6613ZM33.7853 67.6613H15L15 64.6613H33.7853V67.6613ZM7.97871 1.41516L35.1665 65.5761L32.4042 66.7465L5.21647 2.58563L7.97871 1.41516ZM69.4276 67.1768C47.4825 43.3211 20.5891 15.0418 5.66404 3.1745L7.53114 0.826294C22.6781 12.87 49.742 41.3461 71.6355 65.1458L69.4276 67.1768ZM411.963 67.6613L70.5316 67.6613V64.6613L411.963 64.6613V67.6613ZM423.463 79.1613C423.463 72.81 418.314 67.6613 411.963 67.6613V64.6613C419.971 64.6613 426.463 71.1532 426.463 79.1613H423.463ZM423.463 262V79.1613H426.463V262H423.463ZM411.963 273.5C418.314 273.5 423.463 268.351 423.463 262H426.463C426.463 270.008 419.971 276.5 411.963 276.5V273.5ZM15 273.5L411.963 273.5V276.5L15 276.5V273.5Z" fill="black"/>
</svg>
