<svg width="248" height="112" viewBox="0 0 248 112" fill="none" xmlns="http://www.w3.org/2000/svg">
<rect width="248" height="112" fill="#706DFB"/>
<path fill-rule="evenodd" clip-rule="evenodd" d="M137 50.5C137 59.505 129.498 67 120 67C110.502 67 103 59.505 103 50.5C103 41.495 110.502 34 120 34C129.498 34 137 41.495 137 50.5ZM132.164 68.4172C128.68 70.681 124.498 72 120 72C107.85 72 98 62.3741 98 50.5C98 38.6259 107.85 29 120 29C132.15 29 142 38.6259 142 50.5C142 55.8386 140.009 60.7227 136.713 64.4818L153.993 81.8379L156.11 83.9638L151.858 88.1972L149.741 86.0712L132.164 68.4172Z" fill="white"/>
</svg>
