<svg width="926" height="647" viewBox="0 0 926 647" fill="none" xmlns="http://www.w3.org/2000/svg">
<rect x="1.5" y="1.5" width="923" height="644" fill="white" stroke="black" stroke-width="3"/>
<rect x="54.5" y="80.5" width="819" height="106" stroke="black" stroke-width="3"/>
<rect x="53.5" y="218.5" width="113.974" height="65" fill="#D9D9D9" stroke="black"/>
<rect x="168.474" y="218.5" width="111.026" height="65" fill="#D9D9D9" stroke="black"/>
<rect x="53.5" y="293.5" width="108" height="65" fill="#D9D9D9" stroke="black"/>
<rect x="53.5" y="368.5" width="108" height="65" fill="#D9D9D9" stroke="black"/>
<rect x="53.5" y="443.5" width="108" height="65" fill="#D9D9D9" stroke="black"/>
<rect x="53.5" y="518.5" width="108" height="65" fill="#D9D9D9" stroke="black"/>
<rect x="171.5" y="293.5" width="108" height="65" fill="#D9D9D9" stroke="black"/>
<rect x="171.5" y="368.5" width="108" height="65" fill="#D9D9D9" stroke="black"/>
<rect x="171.5" y="443.5" width="108" height="65" fill="#D9D9D9" stroke="black"/>
<rect x="171.5" y="518.5" width="108" height="65" fill="#D9D9D9" stroke="black"/>
<rect x="289.5" y="218.5" width="108" height="65" fill="#D9D9D9" stroke="black"/>
<rect x="289.5" y="293.5" width="108" height="65" fill="#D9D9D9" stroke="black"/>
<rect x="289.5" y="368.5" width="108" height="65" fill="#D9D9D9" stroke="black"/>
<rect x="289.5" y="443.5" width="108" height="65" fill="#D9D9D9" stroke="black"/>
<rect x="289.5" y="518.5" width="108" height="65" fill="#D9D9D9" stroke="black"/>
<rect x="407.5" y="293.5" width="108" height="65" fill="#D9D9D9" stroke="black"/>
<rect x="407.5" y="368.5" width="108" height="65" fill="#D9D9D9" stroke="black"/>
<rect x="407.5" y="443.5" width="108" height="65" fill="#D9D9D9" stroke="black"/>
<rect x="407.5" y="518.5" width="108" height="65" fill="#D9D9D9" stroke="black"/>
<rect x="407.5" y="218.5" width="108" height="65" fill="#D9D9D9" stroke="black"/>
<rect x="525.5" y="218.5" width="108" height="65" fill="#D9D9D9" stroke="black"/>
<rect x="525.5" y="293.5" width="108" height="65" fill="#D9D9D9" stroke="black"/>
<rect x="525.5" y="368.5" width="108" height="65" fill="#D9D9D9" stroke="black"/>
<rect x="525.5" y="443.5" width="108" height="65" fill="#D9D9D9" stroke="black"/>
<rect x="525.5" y="518.5" width="108" height="65" fill="#D9D9D9" stroke="black"/>
<rect x="643.5" y="293.5" width="108" height="65" fill="#D9D9D9" stroke="black"/>
<rect x="643.5" y="368.5" width="108" height="65" fill="#D9D9D9" stroke="black"/>
<rect x="643.5" y="443.5" width="108" height="65" fill="#D9D9D9" stroke="black"/>
<rect x="643.5" y="518.5" width="108" height="65" fill="#706DFB" stroke="black"/>
<rect x="643.5" y="218.5" width="108" height="65" fill="#D9D9D9" stroke="black"/>
<rect x="761.5" y="218.5" width="108" height="65" fill="#D9D9D9" stroke="black"/>
<rect x="761.5" y="293.5" width="108" height="65" fill="#D9D9D9" stroke="black"/>
<rect x="761.5" y="368.5" width="108" height="65" fill="#D9D9D9" stroke="black"/>
<rect x="761.5" y="443.5" width="108" height="65" fill="#D9D9D9" stroke="black"/>
<rect x="761.5" y="518.5" width="108" height="65" fill="#D9D9D9" stroke="black"/>
</svg>
