<svg width="39" height="39" viewBox="0 0 39 39" fill="none" xmlns="http://www.w3.org/2000/svg">
<path d="M14.625 35.75C14.194 35.75 13.7807 35.5788 13.476 35.274C13.1712 34.9693 13 34.556 13 34.125V29.25H6.5C5.63805 29.25 4.8114 28.9076 4.2019 28.2981C3.59241 27.6886 3.25 26.862 3.25 26V6.5C3.25 5.63805 3.59241 4.8114 4.2019 4.2019C4.8114 3.59241 5.63805 3.25 6.5 3.25H32.5C33.362 3.25 34.1886 3.59241 34.7981 4.2019C35.4076 4.8114 35.75 5.63805 35.75 6.5V26C35.75 26.862 35.4076 27.6886 34.7981 28.2981C34.1886 28.9076 33.362 29.25 32.5 29.25H22.5875L16.575 35.2787C16.25 35.5875 15.8438 35.75 15.4375 35.75H14.625ZM16.25 26V31.005L21.255 26H32.5V6.5H6.5V26H16.25Z" fill="black"/>
</svg>
