<svg width="20" height="28" viewBox="0 0 20 28" fill="none" xmlns="http://www.w3.org/2000/svg">
<path d="M4.83984 20.3672L0.503906 14.0273H3.64453L6.60938 18.5859L9.58594 14.0273H12.7148L8.35547 20.3672L12.9375 27H9.78516L6.60938 22.1367L3.42188 27H0.292969L4.83984 20.3672Z" fill="black"/>
<path d="M12.0068 7.43262H13.7568L15.3086 11.7529C15.377 11.9489 15.4385 12.1426 15.4932 12.334C15.5524 12.5208 15.6025 12.7054 15.6436 12.8877C15.6891 13.07 15.7256 13.2523 15.7529 13.4346H15.7939C15.8395 13.1976 15.9033 12.9333 15.9854 12.6416C16.0719 12.3454 16.1676 12.0492 16.2725 11.7529L17.7627 7.43262H19.4922L16.2451 16.0391C16.0583 16.5312 15.8281 16.9505 15.5547 17.2969C15.2858 17.6478 14.9668 17.9121 14.5977 18.0898C14.2285 18.2721 13.807 18.3633 13.333 18.3633C13.1051 18.3633 12.9069 18.3496 12.7383 18.3223C12.5697 18.2995 12.4261 18.2744 12.3076 18.2471V16.9619C12.4033 16.9847 12.5241 17.0052 12.6699 17.0234C12.8158 17.0417 12.9661 17.0508 13.1211 17.0508C13.4082 17.0508 13.6566 16.9938 13.8662 16.8799C14.0758 16.766 14.2536 16.6042 14.3994 16.3945C14.5452 16.1895 14.666 15.9548 14.7617 15.6904L15.0283 14.9795L12.0068 7.43262Z" fill="black"/>
</svg>
