<svg width="399" height="389" viewBox="0 0 399 389" fill="none" xmlns="http://www.w3.org/2000/svg">
<rect y="10" width="399" height="379" rx="13" fill="#ECECEC"/>
<path d="M157.295 111.623C148.682 111.623 140.971 113.182 134.162 116.299C127.436 119.416 121.734 123.928 117.059 129.834C112.383 135.658 108.814 142.754 106.354 151.121C103.893 159.406 102.662 168.758 102.662 179.176C102.662 193.121 104.631 205.139 108.568 215.229C112.506 225.236 118.494 232.947 126.533 238.361C134.572 243.693 144.744 246.359 157.049 246.359C164.678 246.359 172.102 245.621 179.32 244.145C186.539 242.668 194.004 240.658 201.715 238.115V263.217C194.414 266.088 187.031 268.18 179.566 269.492C172.102 270.805 163.488 271.461 153.727 271.461C135.352 271.461 120.094 267.646 107.953 260.018C95.8945 252.389 86.8711 241.643 80.8828 227.779C74.9766 213.916 72.0234 197.674 72.0234 179.053C72.0234 165.436 73.9102 152.967 77.6836 141.646C81.457 130.326 86.9531 120.564 94.1719 112.361C101.391 104.076 110.291 97.7188 120.873 93.2891C131.537 88.7773 143.719 86.5215 157.418 86.5215C166.441 86.5215 175.301 87.5469 183.996 89.5977C192.773 91.5664 200.895 94.3965 208.359 98.0879L198.023 122.451C191.789 119.498 185.268 116.955 178.459 114.822C171.65 112.689 164.596 111.623 157.295 111.623ZM292.277 271.461C279.398 271.461 268.242 268.959 258.809 263.955C249.375 258.951 242.115 251.281 237.029 240.945C231.943 230.609 229.4 217.484 229.4 201.57C229.4 185 232.189 171.465 237.768 160.965C243.346 150.465 251.057 142.713 260.9 137.709C270.826 132.705 282.188 130.203 294.984 130.203C303.105 130.203 310.447 131.023 317.01 132.664C323.654 134.223 329.273 136.15 333.867 138.447L325.254 161.58C320.25 159.529 315.123 157.807 309.873 156.412C304.623 155.018 299.578 154.32 294.738 154.32C286.781 154.32 280.137 156.084 274.805 159.611C269.555 163.139 265.617 168.389 262.992 175.361C260.449 182.334 259.178 190.988 259.178 201.324C259.178 211.332 260.49 219.781 263.115 226.672C265.74 233.48 269.637 238.648 274.805 242.176C279.973 245.621 286.33 247.344 293.877 247.344C301.342 247.344 308.027 246.441 313.934 244.637C319.84 242.832 325.418 240.494 330.668 237.623V262.725C325.5 265.678 319.963 267.852 314.057 269.246C308.15 270.723 300.891 271.461 292.277 271.461Z" fill="black"/>
<line x1="203.5" y1="127" x2="203.5" y2="236" stroke="#706DFB" stroke-width="7" stroke-dasharray="22 22"/>
<rect x="325" y="191.083" width="7" height="17.8349" fill="#706DFB"/>
<rect x="325" y="164" width="7" height="9.24771" fill="#706DFB"/>
<rect x="325" y="226.752" width="7" height="9.24771" fill="#706DFB"/>
</svg>
