<svg width="433" height="389" viewBox="0 0 433 389" fill="none" xmlns="http://www.w3.org/2000/svg">
<rect y="10" width="433" height="379" rx="13" fill="#ECECEC"/>
<path d="M219.412 269H190.004V187.789H107.07V269H77.5391V89.1055H107.07V162.688H190.004V89.1055H219.412V269ZM352.426 132.787V155.551H293.117V269H264.078V132.787H352.426Z" fill="black"/>
<circle cx="346.5" cy="137.5" r="35" stroke="#706DFB" stroke-width="5"/>
<circle cx="92.5" cy="174.5" r="35" stroke="#706DFB" stroke-width="5"/>
<path fill-rule="evenodd" clip-rule="evenodd" d="M66 82.7272L75.9732 88.5469L75.9945 83.9498L94.0413 83.8569L109.007 83.9261L109.031 88.5533L119.001 82.7283L108.971 77.0064L108.996 81.7798L94.0408 81.8568L76.0045 81.7735L76.0266 77L66 82.7272Z" fill="#706DFB"/>
<line x1="76" y1="82.4531" x2="109" y2="82.4531" stroke="#706DFB" stroke-width="3"/>
<path fill-rule="evenodd" clip-rule="evenodd" d="M152.826 148L147.006 157.973L151.603 157.994L151.696 176.041L151.627 191.007L147 191.031L152.825 201.001L158.547 190.971L153.773 190.996L153.696 176.041L153.78 158.005L158.553 158.027L152.826 148Z" fill="#706DFB"/>
<line x1="153.1" y1="158" x2="153.1" y2="191" stroke="#706DFB" stroke-width="3"/>
<path d="M78.1719 70H66.1953V67.4805L70.4961 63.1328C71.3633 62.2422 72.0586 61.5 72.582 60.9062C73.1133 60.3047 73.4961 59.7578 73.7305 59.2656C73.9727 58.7734 74.0938 58.2461 74.0938 57.6836C74.0938 57.0039 73.9023 56.4961 73.5195 56.1602C73.1445 55.8164 72.6406 55.6445 72.0078 55.6445C71.3438 55.6445 70.6992 55.7969 70.0742 56.1016C69.4492 56.4062 68.7969 56.8398 68.1172 57.4023L66.1484 55.0703C66.6406 54.6484 67.1602 54.25 67.707 53.875C68.2617 53.5 68.9023 53.1992 69.6289 52.9727C70.3633 52.7383 71.2422 52.6211 72.2656 52.6211C73.3906 52.6211 74.3555 52.8242 75.1602 53.2305C75.9727 53.6367 76.5977 54.1914 77.0352 54.8945C77.4727 55.5898 77.6914 56.3789 77.6914 57.2617C77.6914 58.207 77.5039 59.0703 77.1289 59.8516C76.7539 60.6328 76.207 61.4062 75.4883 62.1719C74.7773 62.9375 73.918 63.7852 72.9102 64.7148L70.707 66.7891V66.9531H78.1719V70ZM91.8359 60.1797C91.8359 61.1641 91.7617 62.1406 91.6133 63.1094C91.4727 64.0781 91.2227 64.9922 90.8633 65.8516C90.5039 66.7031 90 67.4609 89.3516 68.125C88.7031 68.7812 87.8789 69.2969 86.8789 69.6719C85.8789 70.0469 84.668 70.2344 83.2461 70.2344C82.9102 70.2344 82.5156 70.2188 82.0625 70.1875C81.6094 70.1641 81.2344 70.125 80.9375 70.0703V67.1641C81.25 67.2422 81.582 67.3047 81.9336 67.3516C82.2852 67.3906 82.6406 67.4102 83 67.4102C84.4297 67.4102 85.5312 67.1836 86.3047 66.7305C87.0859 66.2773 87.6328 65.6484 87.9453 64.8438C88.2656 64.0391 88.4492 63.1094 88.4961 62.0547H88.3555C88.1289 62.4297 87.8594 62.7695 87.5469 63.0742C87.2422 63.3711 86.8516 63.6094 86.375 63.7891C85.8984 63.9609 85.293 64.0469 84.5586 64.0469C83.582 64.0469 82.7305 63.8359 82.0039 63.4141C81.2852 62.9844 80.7266 62.3672 80.3281 61.5625C79.9375 60.75 79.7422 59.7695 79.7422 58.6211C79.7422 57.3789 79.9766 56.3164 80.4453 55.4336C80.9219 54.543 81.5977 53.8594 82.4727 53.3828C83.3477 52.9062 84.3789 52.668 85.5664 52.668C86.4414 52.668 87.2578 52.8203 88.0156 53.125C88.7734 53.4219 89.4375 53.8789 90.0078 54.4961C90.5859 55.1133 91.0352 55.8945 91.3555 56.8398C91.6758 57.7852 91.8359 58.8984 91.8359 60.1797ZM85.6367 55.5742C84.9336 55.5742 84.3594 55.8164 83.9141 56.3008C83.4688 56.7852 83.2461 57.543 83.2461 58.5742C83.2461 59.4023 83.4375 60.0586 83.8203 60.543C84.2031 61.0273 84.7852 61.2695 85.5664 61.2695C86.1055 61.2695 86.5742 61.1523 86.9727 60.918C87.3711 60.6758 87.6797 60.375 87.8984 60.0156C88.125 59.6484 88.2383 59.2734 88.2383 58.8906C88.2383 58.4922 88.1836 58.0977 88.0742 57.707C87.9648 57.3164 87.8008 56.9609 87.582 56.6406C87.3633 56.3203 87.0898 56.0625 86.7617 55.8672C86.4414 55.6719 86.0664 55.5742 85.6367 55.5742ZM101.867 56.6523C103.344 56.6523 104.535 57.2266 105.441 58.375C106.355 59.5234 106.812 61.207 106.812 63.4258C106.812 64.9102 106.598 66.1602 106.168 67.1758C105.738 68.1836 105.145 68.9453 104.387 69.4609C103.629 69.9766 102.758 70.2344 101.773 70.2344C101.141 70.2344 100.598 70.1562 100.145 70C99.6914 69.8359 99.3047 69.6289 98.9844 69.3789C98.6641 69.1211 98.3867 68.8477 98.1523 68.5586H97.9648C98.0273 68.8711 98.0742 69.1914 98.1055 69.5195C98.1367 69.8477 98.1523 70.168 98.1523 70.4805V75.7656H94.5781V56.8984H97.4844L97.9883 58.5977H98.1523C98.3867 58.2461 98.6719 57.9219 99.0078 57.625C99.3438 57.3281 99.7461 57.0938 100.215 56.9219C100.691 56.7422 101.242 56.6523 101.867 56.6523ZM100.719 59.5117C100.094 59.5117 99.5977 59.6406 99.2305 59.8984C98.8633 60.1562 98.5938 60.543 98.4219 61.0586C98.2578 61.5742 98.168 62.2266 98.1523 63.0156V63.4023C98.1523 64.2461 98.2305 64.9609 98.3867 65.5469C98.5508 66.1328 98.8203 66.5781 99.1953 66.8828C99.5781 67.1875 100.102 67.3398 100.766 67.3398C101.312 67.3398 101.762 67.1875 102.113 66.8828C102.465 66.5781 102.727 66.1328 102.898 65.5469C103.078 64.9531 103.168 64.2305 103.168 63.3789C103.168 62.0977 102.969 61.1328 102.57 60.4844C102.172 59.8359 101.555 59.5117 100.719 59.5117ZM112.449 63.3086L108.23 56.8984H112.285L114.828 61.0703L117.395 56.8984H121.449L117.184 63.3086L121.648 70H117.582L114.828 65.5117L112.062 70H108.008L112.449 63.3086Z" fill="#706DFB"/>
<path d="M143.172 141H131.195V138.48L135.496 134.133C136.363 133.242 137.059 132.5 137.582 131.906C138.113 131.305 138.496 130.758 138.73 130.266C138.973 129.773 139.094 129.246 139.094 128.684C139.094 128.004 138.902 127.496 138.52 127.16C138.145 126.816 137.641 126.645 137.008 126.645C136.344 126.645 135.699 126.797 135.074 127.102C134.449 127.406 133.797 127.84 133.117 128.402L131.148 126.07C131.641 125.648 132.16 125.25 132.707 124.875C133.262 124.5 133.902 124.199 134.629 123.973C135.363 123.738 136.242 123.621 137.266 123.621C138.391 123.621 139.355 123.824 140.16 124.23C140.973 124.637 141.598 125.191 142.035 125.895C142.473 126.59 142.691 127.379 142.691 128.262C142.691 129.207 142.504 130.07 142.129 130.852C141.754 131.633 141.207 132.406 140.488 133.172C139.777 133.938 138.918 134.785 137.91 135.715L135.707 137.789V137.953H143.172V141ZM151.164 130.055C152.211 130.055 153.141 130.254 153.953 130.652C154.773 131.051 155.418 131.637 155.887 132.41C156.355 133.184 156.59 134.137 156.59 135.27C156.59 136.504 156.332 137.57 155.816 138.469C155.309 139.359 154.547 140.043 153.531 140.52C152.523 140.996 151.266 141.234 149.758 141.234C148.859 141.234 148.012 141.156 147.215 141C146.426 140.852 145.734 140.621 145.141 140.309V137.18C145.734 137.492 146.445 137.758 147.273 137.977C148.109 138.188 148.895 138.293 149.629 138.293C150.348 138.293 150.953 138.199 151.445 138.012C151.938 137.816 152.309 137.52 152.559 137.121C152.816 136.715 152.945 136.199 152.945 135.574C152.945 134.738 152.664 134.098 152.102 133.652C151.539 133.207 150.676 132.984 149.512 132.984C149.066 132.984 148.602 133.027 148.117 133.113C147.641 133.199 147.242 133.285 146.922 133.371L145.48 132.598L146.125 123.867H155.418V126.938H149.301L148.984 130.301C149.25 130.246 149.539 130.191 149.852 130.137C150.164 130.082 150.602 130.055 151.164 130.055ZM166.867 127.652C168.344 127.652 169.535 128.227 170.441 129.375C171.355 130.523 171.812 132.207 171.812 134.426C171.812 135.91 171.598 137.16 171.168 138.176C170.738 139.184 170.145 139.945 169.387 140.461C168.629 140.977 167.758 141.234 166.773 141.234C166.141 141.234 165.598 141.156 165.145 141C164.691 140.836 164.305 140.629 163.984 140.379C163.664 140.121 163.387 139.848 163.152 139.559H162.965C163.027 139.871 163.074 140.191 163.105 140.52C163.137 140.848 163.152 141.168 163.152 141.48V146.766H159.578V127.898H162.484L162.988 129.598H163.152C163.387 129.246 163.672 128.922 164.008 128.625C164.344 128.328 164.746 128.094 165.215 127.922C165.691 127.742 166.242 127.652 166.867 127.652ZM165.719 130.512C165.094 130.512 164.598 130.641 164.23 130.898C163.863 131.156 163.594 131.543 163.422 132.059C163.258 132.574 163.168 133.227 163.152 134.016V134.402C163.152 135.246 163.23 135.961 163.387 136.547C163.551 137.133 163.82 137.578 164.195 137.883C164.578 138.188 165.102 138.34 165.766 138.34C166.312 138.34 166.762 138.188 167.113 137.883C167.465 137.578 167.727 137.133 167.898 136.547C168.078 135.953 168.168 135.23 168.168 134.379C168.168 133.098 167.969 132.133 167.57 131.484C167.172 130.836 166.555 130.512 165.719 130.512ZM177.449 134.309L173.23 127.898H177.285L179.828 132.07L182.395 127.898H186.449L182.184 134.309L186.648 141H182.582L179.828 136.512L177.062 141H173.008L177.449 134.309Z" fill="#706DFB"/>
</svg>
