<svg width="24" height="23" viewBox="0 0 24 23" fill="none" xmlns="http://www.w3.org/2000/svg">
<path d="M12.4434 1.64024L14.4739 7.88749C14.7353 8.69171 15.4847 9.23617 16.3304 9.23617H22.9005C22.919 9.23617 22.9268 9.23892 22.9275 9.23917C22.9285 9.23952 22.9285 9.23955 22.9287 9.23976C22.9304 9.24104 22.9398 9.24982 22.9461 9.26929C22.9524 9.28875 22.95 9.30138 22.9494 9.30339C22.9494 9.3035 22.9494 9.30357 22.9493 9.30366C22.9493 9.30381 22.9492 9.30401 22.9488 9.30458C22.9483 9.30519 22.9436 9.31203 22.9287 9.32286L17.6139 13.1831C16.9295 13.6802 16.6431 14.5615 16.9045 15.3659L18.9348 21.6123C18.9404 21.6296 18.9403 21.6379 18.9402 21.6388V21.6389C18.9402 21.6399 18.9402 21.6399 18.9401 21.6402C18.9394 21.6422 18.9339 21.6538 18.9174 21.6658C18.9008 21.6779 18.888 21.6795 18.886 21.6795C18.8856 21.6795 18.8856 21.6796 18.8846 21.6793L18.8846 21.6793C18.8837 21.679 18.8758 21.6766 18.861 21.6659L13.545 17.8047C12.8609 17.3079 11.9347 17.3079 11.2506 17.8047L5.93458 21.6659C5.91983 21.6766 5.91188 21.679 5.91102 21.6793L5.91099 21.6793C5.90996 21.6796 5.90999 21.6795 5.90965 21.6795C5.90756 21.6795 5.8948 21.6779 5.87825 21.6658C5.8617 21.6538 5.85624 21.6422 5.85554 21.6402C5.85542 21.6399 5.85537 21.6399 5.85536 21.6389V21.6388C5.85534 21.638 5.8552 21.6296 5.86085 21.6123L7.89106 15.3659C8.15253 14.5615 7.86614 13.6802 7.18174 13.1831L1.86692 9.32286C1.85213 9.31212 1.84736 9.30531 1.84685 9.3046L1.84684 9.30458C1.84653 9.30414 1.84639 9.30392 1.84632 9.30377C1.84625 9.30363 1.84624 9.30355 1.8462 9.30339C1.84561 9.30138 1.84318 9.28875 1.8495 9.26929C1.85583 9.24982 1.86521 9.24104 1.86687 9.23976C1.86713 9.23955 1.86707 9.23952 1.86809 9.23917C1.8688 9.23892 1.87664 9.23617 1.89507 9.23617H8.46524C9.31087 9.23617 10.0603 8.69171 10.3217 7.88749L12.3522 1.64024C12.3579 1.62287 12.3629 1.61623 12.3634 1.61553L12.3634 1.61551C12.364 1.61477 12.3641 1.61472 12.3642 1.61459L12.3644 1.61452C12.3661 1.61334 12.3773 1.60714 12.3978 1.60714C12.4183 1.60714 12.4295 1.61334 12.4312 1.61453C12.4314 1.6146 12.4314 1.61464 12.4315 1.61471C12.4316 1.61481 12.4318 1.615 12.4322 1.61551C12.4326 1.61611 12.4377 1.62272 12.4434 1.64024Z" stroke="black" stroke-width="1.90417"/>
</svg>
