<svg width="1441" height="1445" viewBox="0 0 1441 1445" fill="none" xmlns="http://www.w3.org/2000/svg">
<path d="M0 55C0 24.6243 24.6243 0 55 0H1386C1416.38 0 1441 24.6243 1441 55V1427H0V55Z" fill="white"/>
<path fill-rule="evenodd" clip-rule="evenodd" d="M112 785.5C112 801.24 99.2401 814 83.5 814C67.7599 814 55 801.24 55 785.5C55 769.76 67.7599 757 83.5 757C99.2401 757 112 769.76 112 785.5ZM106.79 813.605C100.47 818.848 92.3531 822 83.5 822C63.3416 822 47 805.658 47 785.5C47 765.342 63.3416 749 83.5 749C103.658 749 120 765.342 120 785.5C120 794.645 116.637 803.005 111.079 809.41L142.126 840.593L144.243 842.719L139.991 846.952L137.874 844.826L106.79 813.605Z" fill="black" fill-opacity="0.1"/>
<path fill-rule="evenodd" clip-rule="evenodd" d="M107.358 486.278L88.4661 520.274L92.8366 522.703L111.648 488.85L147.863 510.558L150.433 506.269L114.078 484.477L134.666 447.429L130.296 445L109.788 481.905L76.5706 461.995L74 466.283L107.358 486.278Z" fill="black" fill-opacity="0.1"/>
<path fill-rule="evenodd" clip-rule="evenodd" d="M1384.85 716.902L1350.2 726.799L1351.57 731.606L1386.06 721.755L1395.48 759.35L1400.33 758.135L1390.87 720.381L1428.3 709.693L1426.92 704.886L1389.66 715.528L1380.94 680.73L1376.09 681.945L1384.85 716.902Z" fill="black" fill-opacity="0.1"/>
<path fill-rule="evenodd" clip-rule="evenodd" d="M165.906 128.83L105.977 163.43L113.378 176.248L156.159 151.548L160.489 149.048L162.989 153.378L187.689 196.159L200.506 188.759L165.906 128.83ZM101.647 165.93L109.047 178.748L96.2304 186.148L91.9003 188.648L94.4003 192.978L129 252.907L131.5 257.237L135.83 254.737L195.759 220.137L200.089 217.637L197.589 213.307L190.189 200.489L203.006 193.089L207.336 190.589L204.836 186.259L170.236 126.33L167.736 122L163.406 124.5L103.477 159.1L99.1472 161.6L101.647 165.93ZM193.259 215.807L185.859 202.989L185.686 203.089L183.186 198.759L183.359 198.659L158.659 155.878L115.878 180.578L115.977 180.751L111.647 183.251L111.547 183.078L98.7304 190.478L98.8301 190.651L133.33 250.406L133.33 250.407L193.259 215.807Z" fill="black" fill-opacity="0.1"/>
<g clip-path="url(#clip0_1011_971)">
<path fill-rule="evenodd" clip-rule="evenodd" d="M674.178 1003.37L667.403 1001.55C664.211 1000.67 660.878 1000.44 657.595 1000.85C654.311 1001.27 651.142 1002.33 648.27 1003.97C645.398 1005.62 642.88 1007.82 640.861 1010.44C638.842 1013.06 637.361 1016.06 636.505 1019.25C635.648 1022.45 635.432 1025.78 635.87 1029.07C636.307 1032.35 637.389 1035.51 639.054 1038.37C640.718 1041.23 642.932 1043.73 645.568 1045.73C648.204 1047.74 651.21 1049.2 654.412 1050.03L709.505 1064.79L709.509 1064.78L709.671 1064.82L724.433 1009.73C725.311 1006.54 725.549 1003.21 725.134 999.924C724.718 996.64 723.657 993.471 722.012 990.599C720.367 987.727 718.169 985.209 715.547 983.19C712.925 981.171 709.929 979.69 706.732 978.834C703.535 977.977 700.2 977.761 696.919 978.199C693.639 978.636 690.477 979.718 687.616 981.383C684.755 983.047 682.252 985.261 680.25 987.897C678.249 990.533 676.788 993.539 675.953 996.742L674.178 1003.37ZM703.057 1053.61L711.298 1022.84L713.834 1014L713.842 1013.99L715.62 1007.37C716.716 1003.28 716.142 998.919 714.024 995.251C711.906 991.583 708.418 988.906 704.327 987.81C700.235 986.714 695.876 987.288 692.208 989.406C688.539 991.523 685.863 995.012 684.766 999.103L680.634 1014.54L680.59 1014.53L665.043 1010.37C660.952 1009.27 656.593 1009.85 652.924 1011.96C649.256 1014.08 646.579 1017.57 645.483 1021.66C644.387 1025.75 644.961 1030.11 647.079 1033.78C649.197 1037.45 652.685 1040.13 656.776 1041.22L672.608 1045.46L672.605 1045.45L703.059 1053.61L703.057 1053.61Z" fill="black" fill-opacity="0.1"/>
</g>
<g clip-path="url(#clip1_1011_971)">
<path d="M1331.08 249.954C1330.28 248.561 1328.95 247.544 1327.4 247.127C1325.84 246.711 1324.19 246.929 1322.79 247.733L1280.75 272.005L1286.82 282.515L1323.61 261.277L1338.78 287.552L1323.01 296.654L1359.04 310.887L1365.05 272.382L1349.29 281.484L1331.08 249.954ZM1287.85 344.979C1288.66 346.373 1289.98 347.39 1291.54 347.806C1293.09 348.223 1294.75 348.005 1296.14 347.2L1338.18 322.928L1332.11 312.418L1295.33 333.656L1280.16 307.381L1295.92 298.28L1259.73 284.141L1253.88 322.551L1269.65 313.449L1287.85 344.979Z" fill="black" fill-opacity="0.1"/>
</g>
<g clip-path="url(#clip2_1011_971)">
<path d="M116.264 1069.02C115.644 1067.94 114.623 1067.16 113.426 1066.84C112.229 1066.52 110.953 1066.69 109.879 1067.31L77.4981 1086L82.1719 1094.1L110.506 1077.74L122.19 1097.98L110.047 1104.99L137.797 1115.95L142.429 1086.29L130.286 1093.3L116.264 1069.02ZM82.9659 1142.21C83.5857 1143.29 84.6065 1144.07 85.8039 1144.39C87.0012 1144.71 88.277 1144.54 89.3505 1143.92L121.732 1125.23L117.058 1117.13L88.7243 1133.49L77.0397 1113.25L89.1827 1106.24L61.3074 1095.35L56.8013 1124.94L68.9443 1117.93L82.9659 1142.21Z" fill="black" fill-opacity="0.1"/>
</g>
<g clip-path="url(#clip3_1011_971)">
<path d="M331.926 989.937L271.188 972.8L283.645 995.05C247.822 1022.41 246.706 1059.57 256.715 1090.5C259.721 1063.24 274.207 1043.44 302.02 1027.87L314.788 1050.68L331.926 989.937Z" fill="black" fill-opacity="0.1"/>
</g>
<g clip-path="url(#clip4_1011_971)">
<path d="M870.278 639.23C869.062 638.527 868.176 637.368 867.816 636.006C867.455 634.645 867.65 633.192 868.356 631.969L876.347 618.128L858.006 607.539C855.574 606.135 853.802 603.816 853.082 601.093C852.361 598.37 852.75 595.465 854.163 593.018L886.126 537.656C887.539 535.209 889.86 533.419 892.579 532.682C895.298 531.944 898.191 532.319 900.624 533.723L973.987 576.08C976.419 577.484 978.191 579.803 978.911 582.526C979.632 585.249 979.243 588.154 977.83 590.601L945.867 645.963C944.454 648.41 942.133 650.199 939.414 650.937C936.695 651.674 933.802 651.3 931.369 649.896L903.4 633.747L876.552 641.068C875.129 641.415 873.717 641.215 872.57 640.553L870.278 639.23ZM890.844 614.196L882.641 628.405L904.967 622.349L936.697 640.669L968.66 585.307L895.296 542.95L863.333 598.312L890.844 614.196Z" fill="black" fill-opacity="0.1"/>
</g>
<rect x="1121.42" y="149.032" width="27.7429" height="58.8286" rx="13.8714" transform="rotate(-45 1121.42 149.032)" stroke="black" stroke-opacity="0.1" stroke-width="7"/>
<path fill-rule="evenodd" clip-rule="evenodd" d="M1152.29 198.194C1148.86 196.814 1145.75 194.766 1143.15 192.167L1138.91 196.409C1142.08 199.583 1145.87 202.081 1150.05 203.761C1154.22 205.44 1158.71 206.269 1163.25 206.203C1167.78 206.137 1172.28 205.179 1176.48 203.387C1179.55 202.08 1182.42 200.348 1185 198.249L1193.6 206.844L1200.07 200.379L1191.44 191.453C1193.01 189.288 1194.34 186.95 1195.39 184.485C1197.18 180.281 1198.14 175.783 1198.2 171.247C1198.27 166.711 1197.44 162.225 1195.76 158.048C1194.08 153.87 1191.58 150.086 1188.41 146.912L1184.17 151.154C1186.77 153.754 1188.81 156.856 1190.19 160.286C1191.57 163.717 1192.26 167.411 1192.2 171.16C1192.15 174.909 1191.36 178.638 1189.87 182.133C1188.38 185.628 1186.22 188.819 1183.52 191.52C1180.82 194.221 1177.63 196.378 1174.13 197.867C1170.64 199.357 1166.91 200.149 1163.16 200.204C1159.41 200.258 1155.72 199.573 1152.29 198.194Z" fill="black" fill-opacity="0.1"/>
<path d="M992.025 862.578C989.934 864.686 987.643 866.507 985.153 868.042C982.706 869.577 980.191 870.67 977.609 871.321C975.048 871.95 972.562 872.016 970.152 871.517C967.763 871.041 965.582 869.823 963.607 867.865C961.544 865.818 960.496 863.591 960.464 861.182C960.432 858.774 961.108 856.628 962.493 854.744L962.193 854.447C959.612 855.363 956.928 855.584 954.141 855.109C951.399 854.634 948.841 853.219 946.467 850.865C943.006 847.432 941.466 843.637 941.847 839.481C942.272 835.325 944.377 831.339 948.162 827.523C951.111 824.55 954.307 822.504 957.749 821.385C961.236 820.266 964.705 820.119 968.155 820.945C971.65 821.77 974.873 823.646 977.824 826.573C979.798 828.532 981.553 830.602 983.086 832.783C984.62 834.965 985.743 836.805 986.456 838.305L972.488 851.057C971.651 851.856 971.002 852.466 970.54 852.888C970.099 853.287 969.758 853.609 969.516 853.853C967.139 856.249 965.954 858.287 965.961 859.967C966.012 861.646 966.648 863.09 967.868 864.301C969.355 865.775 971.169 866.431 973.312 866.267C975.499 866.104 977.827 865.31 980.296 863.886C982.787 862.439 985.221 860.518 987.598 858.121C991.801 853.884 994.534 849.42 995.797 844.73C997.059 840.04 996.963 835.411 995.508 830.843C994.075 826.297 991.406 822.087 987.501 818.214C983.619 814.363 979.563 811.551 975.336 809.778C971.13 808.028 966.873 807.239 962.565 807.411C958.301 807.583 954.118 808.672 950.016 810.677C945.914 812.683 942.025 815.538 938.35 819.243C933.861 823.77 930.841 828.411 929.292 833.169C927.765 837.948 927.729 842.71 929.184 847.455C930.684 852.2 933.675 856.795 938.157 861.24C940.864 863.925 943.768 866.211 946.869 868.099C949.971 869.987 952.883 871.533 955.606 872.737L951.314 877.063C948.548 875.948 945.702 874.446 942.777 872.557C939.831 870.691 936.904 868.316 933.998 865.433C928.651 860.13 925.081 854.587 923.29 848.805C921.477 843.045 921.431 837.278 923.153 831.503C924.875 825.729 928.355 820.201 933.593 814.921C937.84 810.639 942.401 807.35 947.275 805.054C952.171 802.78 957.171 801.555 962.275 801.38C967.401 801.226 972.454 802.189 977.434 804.268C982.459 806.346 987.201 809.597 991.661 814.021C996.431 818.752 999.667 823.921 1001.37 829.527C1003.12 835.132 1003.23 840.789 1001.7 846.496C1000.22 852.203 996.998 857.564 992.025 862.578ZM952.989 832.575C950.062 835.526 948.504 838.272 948.316 840.814C948.127 843.356 949.076 845.661 951.161 847.73C953.735 850.283 956.578 851.188 959.691 850.446C962.826 849.726 966.055 847.868 969.38 844.871L978.395 836.581C977.95 835.743 977.327 834.796 976.527 833.738C975.772 832.681 974.895 831.657 973.896 830.666C971.611 828.4 969.219 827.106 966.721 826.784C964.245 826.485 961.827 826.882 959.467 827.974C957.107 829.066 954.947 830.6 952.989 832.575Z" fill="black" fill-opacity="0.1"/>
<path d="M792.613 114.418C794.712 116.517 796.524 118.815 798.049 121.312C799.574 123.765 800.656 126.284 801.297 128.87C801.916 131.433 801.971 133.919 801.463 136.327C800.977 138.714 799.75 140.89 797.784 142.857C795.729 144.912 793.497 145.951 791.088 145.973C788.68 145.995 786.536 145.31 784.658 143.918L784.36 144.216C785.266 146.801 785.476 149.486 784.99 152.27C784.503 155.01 783.078 157.563 780.714 159.927C777.267 163.374 773.466 164.899 769.312 164.501C765.157 164.059 761.18 161.938 757.379 158.137C754.418 155.176 752.385 151.972 751.28 148.525C750.176 145.034 750.043 141.564 750.883 138.117C751.722 134.626 753.612 131.411 756.551 128.472C758.517 126.505 760.594 124.76 762.782 123.235C764.97 121.71 766.815 120.594 768.317 119.887L781.012 133.908C781.808 134.747 782.415 135.399 782.835 135.863C783.233 136.305 783.553 136.648 783.796 136.891C786.183 139.277 788.216 140.471 789.895 140.471C791.574 140.426 793.022 139.797 794.237 138.581C795.718 137.101 796.381 135.289 796.226 133.145C796.071 130.958 795.287 128.627 793.873 126.152C792.436 123.655 790.525 121.213 788.138 118.826C783.918 114.606 779.465 111.855 774.781 110.573C770.096 109.292 765.467 109.369 760.893 110.805C756.341 112.219 752.12 114.871 748.231 118.76C744.364 122.627 741.536 126.671 739.746 130.891C737.978 135.09 737.171 139.344 737.326 143.653C737.481 147.917 738.553 152.105 740.541 156.215C742.53 160.325 745.369 164.225 749.06 167.915C753.567 172.423 758.197 175.461 762.948 177.03C767.721 178.577 772.483 178.632 777.233 177.196C781.984 175.715 786.592 172.743 791.055 168.28C793.751 165.584 796.049 162.689 797.949 159.596C799.85 156.502 801.408 153.596 802.623 150.878L806.932 155.187C805.805 157.949 804.291 160.789 802.391 163.706C800.513 166.645 798.126 169.561 795.232 172.456C789.906 177.782 784.349 181.328 778.559 183.096C772.792 184.886 767.025 184.908 761.257 183.162C755.49 181.416 749.977 177.914 744.718 172.655C740.453 168.39 737.182 163.816 734.906 158.933C732.653 154.027 731.448 149.022 731.294 143.918C731.161 138.791 732.144 133.742 734.244 128.77C736.343 123.754 739.613 119.025 744.055 114.584C748.806 109.833 753.987 106.618 759.6 104.938C765.213 103.215 770.869 103.127 776.571 104.673C782.272 106.176 787.619 109.424 792.613 114.418ZM762.451 153.331C765.389 156.27 768.129 157.839 770.671 158.038C773.212 158.237 775.521 157.298 777.598 155.22C780.161 152.657 781.078 149.818 780.349 146.702C779.642 143.564 777.797 140.327 774.814 136.99L766.561 127.942C765.721 128.383 764.771 129.002 763.71 129.798C762.649 130.549 761.622 131.422 760.627 132.416C758.351 134.692 757.048 137.079 756.716 139.576C756.407 142.051 756.794 144.47 757.876 146.835C758.959 149.199 760.484 151.364 762.451 153.331Z" fill="black" fill-opacity="0.1"/>
<mask id="path-15-inside-1_1011_971" fill="white">
<path fill-rule="evenodd" clip-rule="evenodd" d="M70 1197C31.3401 1197 0 1228.34 0 1267V1445H1440V1267C1440 1228.34 1408.66 1197 1370 1197H70Z"/>
</mask>
<path fill-rule="evenodd" clip-rule="evenodd" d="M70 1197C31.3401 1197 0 1228.34 0 1267V1445H1440V1267C1440 1228.34 1408.66 1197 1370 1197H70Z" fill="#BEBCFD"/>
<path d="M0 1445H-3V1448H0V1445ZM1440 1445V1448H1443V1445H1440ZM3 1267C3 1230 32.9969 1200 70 1200V1194C29.6832 1194 -3 1226.68 -3 1267H3ZM3 1445V1267H-3V1445H3ZM0 1448H1440V1442H0V1448ZM1437 1267V1445H1443V1267H1437ZM1370 1200C1407 1200 1437 1230 1437 1267H1443C1443 1226.68 1410.32 1194 1370 1194V1200ZM70 1200H1370V1194H70V1200Z" fill="black" mask="url(#path-15-inside-1_1011_971)"/>
<defs>
<clipPath id="clip0_1011_971">
<rect width="109.508" height="109.508" fill="white" transform="translate(614 1008.75) rotate(-30)"/>
</clipPath>
<clipPath id="clip1_1011_971">
<rect width="145.629" height="145.629" fill="white" transform="translate(1210 270.814) rotate(-30)"/>
</clipPath>
<clipPath id="clip2_1011_971">
<rect width="112.172" height="112.172" fill="white" transform="translate(23 1085.09) rotate(-30)"/>
</clipPath>
<clipPath id="clip3_1011_971">
<rect width="153" height="153" fill="white" transform="translate(191 977.744) rotate(-29.2435)"/>
</clipPath>
<clipPath id="clip4_1011_971">
<rect width="141.54" height="142.413" fill="white" transform="translate(890.206 507) rotate(30)"/>
</clipPath>
</defs>
</svg>
