<svg width="1441" height="1376" viewBox="0 0 1441 1376" fill="none" xmlns="http://www.w3.org/2000/svg">
<rect y="21" width="1441" height="1339" fill="white"/>
<path fill-rule="evenodd" clip-rule="evenodd" d="M112 716.5C112 732.24 99.2401 745 83.5 745C67.7599 745 55 732.24 55 716.5C55 700.76 67.7599 688 83.5 688C99.2401 688 112 700.76 112 716.5ZM106.79 744.605C100.47 749.848 92.3531 753 83.5 753C63.3416 753 47 736.658 47 716.5C47 696.342 63.3416 680 83.5 680C103.658 680 120 696.342 120 716.5C120 725.645 116.637 734.005 111.079 740.41L142.126 771.593L144.243 773.719L139.991 777.952L137.874 775.826L106.79 744.605Z" fill="black" fill-opacity="0.1"/>
<path fill-rule="evenodd" clip-rule="evenodd" d="M107.358 417.278L88.4661 451.274L92.8366 453.703L111.648 419.85L147.863 441.558L150.433 437.269L114.078 415.477L134.666 378.429L130.296 376L109.788 412.905L76.5706 392.995L74 397.283L107.358 417.278Z" fill="black" fill-opacity="0.1"/>
<path fill-rule="evenodd" clip-rule="evenodd" d="M165.906 59.8302L105.977 94.4302L113.378 107.248L156.159 82.5478L160.489 80.0478L162.989 84.3779L187.689 127.159L200.506 119.759L165.906 59.8302ZM101.647 96.9302L109.047 109.748L96.2304 117.148L91.9003 119.648L94.4003 123.978L129 183.907L131.5 188.237L135.83 185.737L195.759 151.137L200.089 148.637L197.589 144.307L190.189 131.489L203.006 124.089L207.336 121.589L204.836 117.259L170.236 57.3302L167.736 53.0001L163.406 55.5001L103.477 90.1001L99.1472 92.6001L101.647 96.9302ZM193.259 146.807L185.859 133.989L185.686 134.089L183.186 129.759L183.359 129.659L158.659 86.8779L115.878 111.578L115.977 111.751L111.647 114.251L111.547 114.078L98.7304 121.478L98.8301 121.651L133.33 181.406L133.33 181.407L193.259 146.807Z" fill="black" fill-opacity="0.1"/>
<g clip-path="url(#clip0_934_1485)">
<path fill-rule="evenodd" clip-rule="evenodd" d="M674.178 934.367L667.403 932.552C664.211 931.674 660.878 931.436 657.595 931.851C654.311 932.267 651.142 933.328 648.27 934.973C645.398 936.618 642.88 938.815 640.861 941.438C638.842 944.06 637.361 947.056 636.505 950.253C635.648 953.45 635.432 956.785 635.87 960.065C636.307 963.346 637.389 966.508 639.054 969.369C640.718 972.229 642.932 974.733 645.568 976.734C648.204 978.736 651.21 980.196 654.412 981.032L709.505 995.794L709.509 995.781L709.671 995.825L724.433 940.732C725.311 937.54 725.549 934.207 725.134 930.924C724.718 927.64 723.657 924.471 722.012 921.599C720.367 918.727 718.169 916.209 715.547 914.19C712.925 912.171 709.929 910.69 706.732 909.834C703.535 908.977 700.2 908.761 696.919 909.199C693.639 909.636 690.477 910.718 687.616 912.383C684.755 914.047 682.252 916.261 680.25 918.897C678.249 921.533 676.788 924.539 675.953 927.742L674.178 934.367ZM703.057 984.606L711.298 953.837L713.834 944.996L713.842 944.992L715.62 938.37C716.716 934.279 716.142 929.919 714.024 926.251C711.906 922.583 708.418 919.906 704.327 918.81C700.235 917.714 695.876 918.288 692.208 920.406C688.539 922.523 685.863 926.012 684.766 930.103L680.634 945.54L680.59 945.528L665.043 941.369C660.952 940.273 656.593 940.847 652.924 942.965C649.256 945.082 646.579 948.571 645.483 952.662C644.387 956.753 644.961 961.113 647.079 964.781C649.197 968.449 652.685 971.126 656.776 972.222L672.608 976.464L672.605 976.45L703.059 984.61L703.057 984.606Z" fill="black" fill-opacity="0.1"/>
</g>
<g clip-path="url(#clip1_934_1485)">
<path d="M1331.08 180.954C1330.28 179.561 1328.95 178.544 1327.4 178.127C1325.84 177.711 1324.19 177.929 1322.79 178.733L1280.75 203.005L1286.82 213.515L1323.61 192.277L1338.78 218.552L1323.01 227.654L1359.04 241.887L1365.05 203.382L1349.28 212.484L1331.08 180.954ZM1287.85 275.979C1288.66 277.373 1289.98 278.39 1291.54 278.806C1293.09 279.223 1294.75 279.005 1296.14 278.2L1338.18 253.928L1332.11 243.418L1295.33 264.656L1280.16 238.381L1295.92 229.28L1259.73 215.141L1253.88 253.551L1269.65 244.449L1287.85 275.979Z" fill="black" fill-opacity="0.1"/>
</g>
<path d="M310.185 901.094L249.447 883.956L261.904 906.206C226.081 933.569 224.965 970.725 234.974 1001.65C237.98 974.397 252.466 954.597 280.279 939.025L293.048 961.831L310.185 901.094Z" fill="black" fill-opacity="0.1"/>
<g clip-path="url(#clip2_934_1485)">
<path d="M906.279 559.23C905.063 558.527 904.177 557.368 903.817 556.006C903.456 554.645 903.651 553.192 904.357 551.969L912.348 538.128L894.007 527.539C891.575 526.135 889.803 523.816 889.083 521.093C888.362 518.37 888.751 515.465 890.164 513.018L922.127 457.656C923.54 455.209 925.861 453.419 928.58 452.682C931.299 451.944 934.192 452.319 936.625 453.723L1009.99 496.08C1012.42 497.484 1014.19 499.803 1014.91 502.526C1015.63 505.249 1015.24 508.154 1013.83 510.601L981.868 565.963C980.455 568.41 978.134 570.199 975.415 570.937C972.696 571.674 969.803 571.3 967.37 569.896L939.401 553.747L912.553 561.068C911.13 561.415 909.718 561.215 908.571 560.553L906.279 559.23ZM926.845 534.196L918.642 548.405L940.968 542.349L972.698 560.669L1004.66 505.307L931.297 462.95L899.334 518.312L926.845 534.196Z" fill="black" fill-opacity="0.1"/>
</g>
<rect x="1121.42" y="80.0322" width="27.7429" height="58.8286" rx="13.8714" transform="rotate(-45 1121.42 80.0322)" stroke="black" stroke-opacity="0.1" stroke-width="7"/>
<path fill-rule="evenodd" clip-rule="evenodd" d="M1152.29 129.194C1148.86 127.814 1145.75 125.766 1143.15 123.167L1138.91 127.409C1142.08 130.583 1145.87 133.081 1150.05 134.761C1154.22 136.44 1158.71 137.269 1163.25 137.203C1167.78 137.137 1172.28 136.179 1176.48 134.387C1179.55 133.08 1182.42 131.348 1185 129.249L1193.6 137.844L1200.07 131.379L1191.44 122.453C1193.01 120.288 1194.34 117.95 1195.39 115.485C1197.18 111.281 1198.14 106.783 1198.2 102.247C1198.27 97.7107 1197.44 93.2252 1195.76 89.0479C1194.08 84.8704 1191.58 81.0855 1188.41 77.9117L1184.17 82.1543C1186.77 84.7537 1188.81 87.856 1190.19 91.2865C1191.57 94.7171 1192.26 98.4114 1192.2 102.16C1192.15 105.909 1191.36 109.638 1189.87 113.133C1188.38 116.628 1186.22 119.819 1183.52 122.52C1180.82 125.221 1177.63 127.378 1174.13 128.867C1170.64 130.357 1166.91 131.149 1163.16 131.204C1159.41 131.258 1155.72 130.573 1152.29 129.194Z" fill="black" fill-opacity="0.1"/>
<path d="M1054.02 807.578C1051.93 809.686 1049.64 811.507 1047.15 813.042C1044.71 814.577 1042.19 815.67 1039.61 816.321C1037.05 816.95 1034.56 817.016 1032.15 816.517C1029.76 816.041 1027.58 814.823 1025.61 812.865C1023.54 810.818 1022.5 808.591 1022.46 806.182C1022.43 803.774 1023.11 801.628 1024.49 799.744L1024.19 799.447C1021.61 800.363 1018.93 800.584 1016.14 800.109C1013.4 799.634 1010.84 798.219 1008.47 795.865C1005.01 792.432 1003.47 788.637 1003.85 784.481C1004.27 780.325 1006.38 776.339 1010.16 772.523C1013.11 769.55 1016.31 767.504 1019.75 766.385C1023.24 765.266 1026.7 765.119 1030.16 765.945C1033.65 766.77 1036.87 768.646 1039.82 771.573C1041.8 773.532 1043.55 775.602 1045.09 777.783C1046.62 779.965 1047.74 781.805 1048.46 783.305L1034.49 796.057C1033.65 796.856 1033 797.466 1032.54 797.888C1032.1 798.287 1031.76 798.609 1031.52 798.853C1029.14 801.249 1027.95 803.287 1027.96 804.967C1028.01 806.646 1028.65 808.09 1029.87 809.301C1031.35 810.775 1033.17 811.431 1035.31 811.267C1037.5 811.104 1039.83 810.31 1042.3 808.886C1044.79 807.439 1047.22 805.518 1049.6 803.121C1053.8 798.884 1056.53 794.42 1057.8 789.73C1059.06 785.04 1058.96 780.411 1057.51 775.843C1056.08 771.297 1053.41 767.087 1049.5 763.214C1045.62 759.363 1041.56 756.551 1037.34 754.778C1033.13 753.028 1028.87 752.239 1024.56 752.411C1020.3 752.583 1016.12 753.672 1012.02 755.677C1007.91 757.683 1004.03 760.538 1000.35 764.243C995.861 768.77 992.841 773.411 991.292 778.169C989.765 782.948 989.729 787.71 991.184 792.455C992.684 797.2 995.675 801.795 1000.16 806.24C1002.86 808.925 1005.77 811.211 1008.87 813.099C1011.97 814.987 1014.88 816.533 1017.61 817.737L1013.31 822.063C1010.55 820.948 1007.7 819.446 1004.78 817.557C1001.83 815.691 998.904 813.316 995.998 810.433C990.651 805.13 987.081 799.587 985.29 793.805C983.477 788.045 983.431 782.278 985.153 776.503C986.875 770.729 990.355 765.201 995.593 759.921C999.84 755.639 1004.4 752.35 1009.27 750.054C1014.17 747.78 1019.17 746.555 1024.27 746.38C1029.4 746.226 1034.45 747.189 1039.43 749.268C1044.46 751.346 1049.2 754.597 1053.66 759.021C1058.43 763.752 1061.67 768.921 1063.37 774.527C1065.12 780.132 1065.23 785.789 1063.7 791.496C1062.22 797.203 1059 802.564 1054.02 807.578ZM1014.99 777.575C1012.06 780.526 1010.5 783.272 1010.32 785.814C1010.13 788.356 1011.08 790.661 1013.16 792.73C1015.74 795.283 1018.58 796.188 1021.69 795.446C1024.83 794.726 1028.06 792.868 1031.38 789.871L1040.39 781.581C1039.95 780.743 1039.33 779.796 1038.53 778.738C1037.77 777.681 1036.89 776.657 1035.9 775.666C1033.61 773.4 1031.22 772.106 1028.72 771.784C1026.24 771.485 1023.83 771.882 1021.47 772.974C1019.11 774.066 1016.95 775.6 1014.99 777.575Z" fill="black" fill-opacity="0.1"/>
<path d="M792.613 45.4181C794.712 47.5173 796.524 49.8154 798.049 52.3124C799.574 54.7652 800.656 57.2843 801.297 59.8696C801.916 62.4329 801.971 64.9188 801.463 67.3274C800.977 69.7139 799.75 71.8904 797.784 73.8571C795.729 75.9121 793.497 76.9507 791.088 76.9728C788.68 76.9949 786.536 76.3098 784.658 74.9177L784.36 75.216C785.266 77.8014 785.476 80.4862 784.99 83.2704C784.503 86.0105 783.078 88.5627 780.714 90.9271C777.267 94.3742 773.466 95.8989 769.312 95.5012C765.157 95.0592 761.18 92.9379 757.379 89.1372C754.418 86.1762 752.385 82.9721 751.28 79.525C750.176 76.0336 750.043 72.5644 750.883 69.1172C751.722 65.6259 753.612 62.4108 756.551 59.4719C758.517 57.5052 760.594 55.7596 762.782 54.2349C764.97 52.7102 766.815 51.5943 768.317 50.8871L781.012 64.9077C781.808 65.7474 782.415 66.3993 782.835 66.8633C783.233 67.3053 783.553 67.6478 783.796 67.8909C786.183 70.2773 788.216 71.4706 789.895 71.4706C791.574 71.4264 793.022 70.7966 794.237 69.5813C795.718 68.1008 796.381 66.2888 796.226 64.1454C796.071 61.9578 795.287 59.6265 793.873 57.1517C792.436 54.6547 790.525 52.213 788.138 49.8265C783.918 45.6059 779.465 42.8549 774.781 41.5732C770.096 40.2916 765.467 40.3689 760.893 41.8052C756.341 43.2195 752.12 45.8711 748.231 49.7602C744.364 53.6272 741.536 57.6709 739.746 61.8915C737.978 66.0899 737.171 70.3436 737.326 74.6526C737.481 78.9173 738.553 83.1047 740.541 87.2148C742.53 91.3248 745.369 95.2249 749.06 98.9152C753.567 103.423 758.197 106.461 762.948 108.03C767.721 109.577 772.483 109.632 777.233 108.196C781.984 106.715 786.592 103.743 791.055 99.2798C793.751 96.5839 796.049 93.6892 797.949 90.5956C799.85 87.502 801.408 84.5962 802.623 81.8783L806.932 86.1872C805.805 88.9494 804.291 91.7889 802.391 94.7057C800.513 97.6446 798.126 100.561 795.232 103.456C789.906 108.782 784.349 112.328 778.559 114.096C772.792 115.886 767.025 115.908 761.257 114.162C755.49 112.416 749.977 108.914 744.718 103.655C740.453 99.3902 737.182 94.8162 734.906 89.9327C732.653 85.0271 731.448 80.0222 731.294 74.9177C731.161 69.7912 732.144 64.742 734.244 59.7702C736.343 54.7541 739.613 50.0254 744.055 45.5838C748.806 40.833 753.987 37.6178 759.6 35.9385C765.213 34.2149 770.869 34.1265 776.571 35.6733C782.272 37.1759 787.619 40.4242 792.613 45.4181ZM762.451 84.3311C765.389 87.27 768.129 88.8389 770.671 89.0378C773.212 89.2366 775.521 88.2975 777.598 86.2204C780.161 83.6571 781.078 80.8176 780.349 77.702C779.642 74.5642 777.797 71.3269 774.814 67.9903L766.561 58.9415C765.721 59.3835 764.771 60.0022 763.71 60.7977C762.649 61.549 761.622 62.4218 760.627 63.4162C758.351 65.6922 757.048 68.0787 756.716 70.5756C756.407 73.0505 756.794 75.4702 757.876 77.8345C758.959 80.1989 760.484 82.3644 762.451 84.3311Z" fill="black" fill-opacity="0.1"/>
<mask id="path-13-inside-1_934_1485" fill="white">
<path fill-rule="evenodd" clip-rule="evenodd" d="M70 1128C31.3401 1128 0 1159.34 0 1198V1376H1440V1198C1440 1159.34 1408.66 1128 1370 1128H70Z"/>
</mask>
<path fill-rule="evenodd" clip-rule="evenodd" d="M70 1128C31.3401 1128 0 1159.34 0 1198V1376H1440V1198C1440 1159.34 1408.66 1128 1370 1128H70Z" fill="#BEBCFD"/>
<path d="M0 1376H-3V1379H0V1376ZM1440 1376V1379H1443V1376H1440ZM3 1198C3 1161 32.9969 1131 70 1131V1125C29.6832 1125 -3 1157.68 -3 1198H3ZM3 1376V1198H-3V1376H3ZM0 1379H1440V1373H0V1379ZM1437 1198V1376H1443V1198H1437ZM1370 1131C1407 1131 1437 1161 1437 1198H1443C1443 1157.68 1410.32 1125 1370 1125V1131ZM70 1131H1370V1125H70V1131Z" fill="black" mask="url(#path-13-inside-1_934_1485)"/>
<defs>
<clipPath id="clip0_934_1485">
<rect width="109.508" height="109.508" fill="white" transform="translate(614 939.754) rotate(-30)"/>
</clipPath>
<clipPath id="clip1_934_1485">
<rect width="145.629" height="145.629" fill="white" transform="translate(1210 201.814) rotate(-30)"/>
</clipPath>
<clipPath id="clip2_934_1485">
<rect width="141.54" height="142.413" fill="white" transform="translate(926.207 427) rotate(30)"/>
</clipPath>
</defs>
</svg>
