<svg width="37" height="37" viewBox="0 0 37 37" fill="none" xmlns="http://www.w3.org/2000/svg">
<path fill-rule="evenodd" clip-rule="evenodd" d="M18.5183 8.59021L16.8425 6.91442C16.0571 6.1184 15.122 5.4856 14.091 5.05247C13.06 4.61933 11.9535 4.39442 10.8352 4.39067C9.71693 4.38693 8.60896 4.60442 7.57509 5.03064C6.54122 5.45686 5.60187 6.08337 4.81113 6.87412C4.02038 7.66486 3.39387 8.60421 2.96765 9.63808C2.54143 10.672 2.32394 11.7799 2.32768 12.8982C2.33143 14.0165 2.55635 15.123 2.98948 16.154C3.42261 17.1849 4.05541 18.1201 4.85143 18.9055L18.4782 32.5323L18.4813 32.5292L18.5214 32.5693L32.1482 18.9425C32.9442 18.1571 33.577 17.2219 34.0101 16.191C34.4433 15.16 34.6682 14.0535 34.6719 12.9352C34.6757 11.8169 34.4582 10.709 34.032 9.67508C33.6057 8.64121 32.9792 7.70186 32.1885 6.91111C31.3977 6.12037 30.4584 5.49385 29.4245 5.06764C28.3906 4.64142 27.2827 4.42393 26.1644 4.42767C25.0461 4.43142 23.9396 4.65633 22.9087 5.08947C21.8777 5.5226 20.9425 6.1554 20.1571 6.95142L18.5183 8.59021ZM18.4813 28.1694L26.091 20.5582L28.3264 18.3998H28.3295L29.9683 16.7626C30.9802 15.7506 31.5487 14.3781 31.5487 12.947C31.5487 11.5158 30.9802 10.1433 29.9683 9.13134C28.9563 8.11937 27.5838 7.55085 26.1526 7.55085C24.7215 7.55085 23.349 8.11937 22.337 9.13134L18.5198 12.95L18.5091 12.9393L14.6626 9.09588C13.6506 8.08391 12.2781 7.5154 10.847 7.5154C9.41584 7.5154 8.04332 8.08391 7.03135 9.09588C6.01938 10.1078 5.45087 11.4804 5.45087 12.9115C5.45087 14.3426 6.01938 15.7152 7.03135 16.7271L10.9472 20.643L10.9487 20.6383L18.4813 28.1709V28.1694Z" fill="black"/>
</svg>
