<svg width="267" height="106" viewBox="0 0 267 106" fill="none" xmlns="http://www.w3.org/2000/svg">
<path d="M30.5974 0.213699C29.1961 0.483753 27.3584 1.33893 26.3707 2.1941C25.337 3.07177 24.2574 5.14219 23.8898 6.87504C23.4993 8.69791 23.7061 15.8543 24.2114 17.6322C24.7168 19.5001 26.164 22.3131 27.4963 24.046C28.1165 24.8562 29.8623 27.1291 31.4013 29.132C35.605 34.5781 36.0644 35.6808 36.0644 40.1142C36.0644 42.6572 35.7888 43.94 35.0767 44.6826C34.043 45.8079 32.0905 45.4703 31.3095 44.0075C30.9649 43.3999 30.896 42.4772 30.8271 37.9313L30.7352 32.5977H26.945H23.1777L23.2466 39.3941C23.3156 45.8529 23.3615 46.2805 23.8439 47.4732C24.8776 49.9937 26.4626 51.5015 28.9664 52.3342C29.9542 52.6492 30.896 52.7393 33.5376 52.7393C36.432 52.7168 37.0292 52.6492 38.1548 52.2217C39.9695 51.524 41.0951 50.6463 42.1058 49.2286C43.8975 46.6855 44.4488 43.895 44.2651 38.4489C44.0583 32.2601 43.4381 30.8649 37.4657 23.0783C35.2145 20.1527 33.1012 17.2496 32.7796 16.6645C31.9067 15.1117 31.4702 13.1988 31.4702 11.0834C31.4702 8.13529 32.1134 6.94255 33.6984 6.94255C35.7658 6.94255 36.0644 7.70771 36.0644 13.2438V17.5197L39.8087 17.4747L43.53 17.4072L43.5989 13.1313C43.6678 8.27032 43.4151 5.59228 42.726 4.06197C41.7842 1.96905 39.8546 0.618782 37.19 0.191196C35.4672 -0.0788574 32.0216 -0.0563545 30.5974 0.213699Z" fill="black"/>
<path d="M0 26.4086V52.4014H3.79021H7.58041L7.62636 40.9691L7.69527 29.5593H10.3369H12.9786L13.0475 40.9916L13.0934 52.4014L16.9526 52.3564L20.7887 52.2888L20.8576 26.3411L20.9036 0.415924H16.9985H13.0934L13.0475 10.813L12.9786 21.2326H10.3369H7.69527L7.62636 10.813L7.58041 0.415924H3.79021H0V26.4086Z" fill="black"/>
<path d="M46.6309 26.4097V52.3799L55.6584 52.3349L64.6631 52.2899L64.732 48.3966L64.7779 44.5258H59.6094H54.441V36.9868V29.4478H58.346H62.2511V25.5095V21.5712H58.346H54.441V14.8198V8.06848H59.3797H64.3185V4.24271V0.416939H55.4747H46.6309V26.4097Z" fill="black"/>
<path d="M78.4692 1.13607C78.3544 1.74369 75.5289 25.0359 74.6331 32.4849C74.5182 33.4751 74.0129 37.6834 73.5075 41.8242C72.9792 45.9651 72.4968 50.0384 72.4279 50.8711L72.29 52.4014H75.483C77.2288 52.4014 78.7908 52.3113 78.9516 52.2213C79.0894 52.1313 79.411 50.1284 79.7326 47.2703L80.238 42.4994H83.0404H85.8659L85.9807 43.2195C86.0726 43.6246 86.2793 45.6275 86.4861 47.6754C86.6928 49.7233 86.8996 51.6137 86.9685 51.8838C87.0604 52.3564 87.1522 52.3789 90.7357 52.3789C94.3192 52.4014 94.4111 52.4014 94.4111 51.9513C94.4111 51.6812 94.0895 49.0707 93.7219 46.1451C92.5964 37.5484 90.1385 18.5096 89.0129 9.86782C88.4616 5.47944 87.9333 1.54115 87.8643 1.13607L87.7265 0.415924H83.1553H78.5841L78.4692 1.13607ZM83.8444 23.033C84.2349 26.6112 84.6484 30.4144 84.7633 31.4722C84.8781 32.5299 84.993 33.7226 84.993 34.1052V34.8478H83.0404C81.2257 34.8478 81.0879 34.8253 81.0879 34.3978C81.0879 34.1277 81.5014 30.0094 82.0068 25.2384C82.5121 20.4449 82.9256 16.4166 82.9486 16.2816C82.9945 15.5615 83.2012 17.1593 83.8444 23.033Z" fill="black"/>
<path d="M95.7886 26.4079V52.4006H99.6936H103.599V40.8108V29.2209H105.207C107.044 29.2209 108.032 29.6035 108.308 30.3912C108.423 30.6837 108.56 35.5222 108.629 41.1483C108.744 48.9574 108.836 51.5004 109.066 51.9055C109.364 52.4006 109.433 52.4231 113.132 52.4006C115.199 52.3781 116.945 52.3106 116.991 52.2431C117.06 52.1981 116.945 51.7705 116.738 51.3204C116.394 50.6002 116.325 49.0699 116.233 39.1229C116.141 30.5037 116.049 27.6006 115.819 27.083C115.452 26.2729 114.533 25.2601 113.66 24.72L113.017 24.3375L113.959 23.5948C114.533 23.1447 115.153 22.3571 115.521 21.5919L116.118 20.3317L116.187 13.5353C116.256 7.93167 116.21 6.49138 115.911 5.36615C115.199 2.6431 113.453 1.1353 110.49 0.662708C109.663 0.527679 106.034 0.415157 102.404 0.415157H95.7886V26.4079ZM107.458 7.81915C108.377 8.31424 108.537 9.25943 108.537 14.593C108.537 18.9814 108.492 19.7465 108.147 20.3767C107.504 21.5019 106.907 21.7945 105.161 21.7945H103.599V14.7505C103.599 10.8573 103.668 7.6166 103.782 7.52658C103.989 7.27904 106.907 7.52658 107.458 7.81915Z" fill="black"/>
<path d="M117.703 0.708702C117.657 0.866234 117.634 2.55407 117.657 4.46696L117.726 7.95516L120.988 8.02267L124.273 8.09019L124.319 30.1896L124.388 52.2891H128.178H131.968L132.037 30.1671L132.083 8.06768H135.299H138.515V4.24191V0.416145H128.178C119.932 0.416145 117.795 0.483658 117.703 0.708702Z" fill="black"/>
<path d="M152.205 1.24854C152.136 1.72113 151.86 3.81405 151.608 5.92947C150.873 11.9832 149.403 24.1581 148.392 32.3723C147.886 36.5131 147.312 41.2841 147.128 42.9494C146.922 44.6148 146.623 47.1353 146.439 48.5305C146.256 49.9258 146.095 51.3661 146.095 51.7037V52.3563L149.471 52.3113L152.848 52.2888L153.009 51.3886C153.101 50.8935 153.331 48.6881 153.56 46.4826L153.974 42.4993H156.799H159.625L159.762 43.2195C159.808 43.6246 160.038 45.5825 160.222 47.5629C160.429 49.5432 160.635 51.4336 160.704 51.7712L160.819 52.3563L164.494 52.3788L168.147 52.4238V51.9062C168.147 51.6137 167.527 46.6177 166.769 40.8115C166.011 34.9828 164.563 23.7981 163.553 15.944C162.542 8.08991 161.646 1.38356 161.577 1.02349L161.439 0.415867H156.891H152.343L152.205 1.24854ZM157.81 25.0358C158.315 29.7168 158.729 33.8576 158.729 34.1952V34.8478H156.753H154.755L154.916 33.205C155.007 32.3273 155.444 28.209 155.88 24.0906C156.317 19.9723 156.661 16.4616 156.684 16.3266C156.73 15.5164 156.96 17.3168 157.81 25.0358Z" fill="black"/>
<path d="M169.572 26.3411L169.641 52.2888H173.087H176.533L176.647 37.6834L176.762 23.0555L178.232 28.9066C179.036 32.1023 180.667 38.6286 181.862 43.3996C183.056 48.148 184.136 52.1313 184.297 52.2213C184.457 52.3113 185.882 52.4014 187.513 52.4014H190.43V26.4086V0.415924H186.869H183.309L183.286 14.0762L183.263 27.7589L182.137 23.258C181.035 18.8921 179.932 14.3462 177.658 4.96183L176.555 0.415924H173.041H169.526L169.572 26.3411Z" fill="black"/>
<path d="M193.416 26.3861V52.4014H198.997C202.053 52.4014 205.475 52.2888 206.601 52.1763C210.299 51.7487 212.321 50.2184 213.446 47.0003L213.975 45.5375L214.043 26.8137C214.089 10.5205 214.066 7.88742 213.745 6.58216C213.262 4.55675 212.367 3.00394 211.126 2.08125C209.265 0.685974 208.576 0.573448 200.605 0.460926L193.416 0.370911V26.3861ZM204.442 7.68488C204.993 7.86491 205.383 8.20248 205.636 8.74259C206.027 9.46274 206.05 10.768 206.05 26.0711C206.05 41.3742 206.027 42.6794 205.636 43.3996C205.131 44.4123 204.419 44.7498 202.673 44.7498H201.226V26.0711V7.39232L202.443 7.41483C203.086 7.41483 204.005 7.52735 204.442 7.68488Z" fill="black"/>
<path d="M50.1683 53.3928C48.3766 53.7979 47.5267 54.2255 46.2403 55.3957C44.104 57.3311 43.5297 59.3565 43.5527 64.7801C43.5986 71.3739 44.3567 73.2193 49.8008 80.3082C55.7962 88.0723 55.8192 88.0948 55.8422 93.0683C55.8422 96.9841 55.5895 97.7717 54.0734 98.2894C52.9708 98.6719 52.1438 98.3794 51.3628 97.3442C50.9034 96.7365 50.8804 96.3765 50.8115 91.2004L50.7426 85.7093L46.9065 85.7543L43.0703 85.8218V92.1231C43.0703 98.0193 43.1163 98.5369 43.5986 100.045C44.4256 102.678 46.3552 104.681 48.7671 105.423C50.3751 105.918 54.5328 106.098 56.3475 105.738C59.1959 105.198 61.493 103.578 62.7105 101.26C63.8131 99.122 64.1576 97.1416 64.1347 92.7983C64.1347 85.7993 63.5145 84.224 57.9785 77.0001C51.6385 68.7634 51.3399 68.1333 51.5007 63.6549C51.5696 61.2244 51.5925 61.1119 52.2128 60.5943C53.2694 59.7166 54.5328 59.8741 55.6354 61.0219C55.6584 61.0444 55.7273 63.1823 55.7962 65.7928L55.934 70.5188L59.6783 70.5863L63.4456 70.6538L63.3537 64.6226L63.2848 58.5914L62.5267 57.0836C61.1025 54.2255 59.2189 53.3028 54.5558 53.1678C52.5343 53.1003 51.1101 53.1903 50.1683 53.3928Z" fill="black"/>
<path d="M84.0742 53.3691C80.5827 54.1793 78.6301 56.1372 77.4816 59.9404C77.114 61.1782 77.0681 62.8885 76.9992 79.1818C76.9303 97.7255 76.9762 98.9633 77.8951 101.326C78.4923 102.924 80.1692 104.747 81.6623 105.422C83.3621 106.21 86.0498 106.187 87.7037 105.377C89.036 104.724 90.7358 102.992 91.5398 101.484C92.16 100.291 92.1371 100.269 92.8951 103.217L93.4005 105.175L95.6286 105.242L97.8568 105.31V89.6464V74.0058H92.3438H86.8308L86.8767 77.8765L86.9456 81.7698L88.7374 81.8373L90.5061 81.9049V88.5887C90.5061 92.4595 90.4142 95.6326 90.2764 96.1052C89.794 97.793 87.5658 98.6707 86.1646 97.7255C84.9701 96.8929 84.9931 97.0954 84.9931 79.2943C84.9931 60.8181 84.9471 61.4482 86.5092 60.8181C87.5429 60.3905 88.4387 60.5706 89.1508 61.3132C89.6792 61.8758 89.7021 62.0334 89.771 65.9266L89.84 69.9549H93.6531H97.4433L97.3515 64.8239C97.2596 60.4355 97.1907 59.5353 96.7772 58.4326C95.8584 55.8446 94.3423 54.3143 92.0222 53.6167C90.4602 53.1441 85.7282 52.9865 84.0742 53.3691Z" fill="black"/>
<path d="M138.744 53.211C136.792 53.571 135.138 54.3587 134.012 55.4389C131.922 57.4868 131.302 59.6023 131.325 64.6658C131.371 71.2596 132.197 73.2625 138.009 80.8015C142.259 86.3151 143.155 87.8004 143.545 89.8708C144.119 92.954 143.729 96.8922 142.764 97.8599C141.983 98.6251 140.375 98.6251 139.548 97.8599C138.721 97.0948 138.514 95.632 138.514 90.4335V85.7075H134.724H130.934V91.8962C130.934 98.5801 131.072 99.7053 132.106 101.708C133.691 104.814 136.93 106.164 142.167 105.894C149.495 105.556 152.412 101.213 151.998 91.3336C151.723 85.1449 151.263 84.1547 144.464 75.2429C140.008 69.3917 139.456 68.334 139.273 65.3634C139.02 61.4701 139.617 60.0523 141.432 60.0523C142.58 60.0523 143.269 60.5474 143.568 61.5827C143.683 62.0327 143.798 64.2607 143.798 66.5336V70.6295L147.542 70.5845L151.263 70.5169V65.2284C151.24 58.2745 150.873 56.7667 148.76 54.9438C147.289 53.6836 145.681 53.256 142.19 53.166C140.605 53.1435 139.066 53.166 138.744 53.211Z" fill="black"/>
<path d="M161.027 53.3229C157.535 53.9981 155.123 56.6311 154.342 60.5919C154.227 61.1995 154.135 69.4587 154.135 79.6307C154.135 96.6441 154.158 97.6568 154.572 99.2771C155.123 101.393 155.514 102.135 156.731 103.418C158.615 105.421 160.82 106.074 165.299 105.916C167.941 105.826 168.423 105.758 169.71 105.173C170.651 104.768 171.478 104.183 172.099 103.508C173.224 102.248 173.569 101.595 174.189 99.6822C174.602 98.332 174.671 97.4318 174.74 90.4779L174.855 82.7813L170.973 82.8263L167.114 82.8939L166.999 89.8703C166.884 97.1167 166.815 97.5668 165.85 98.0844C165.115 98.467 163.668 98.3545 163.025 97.8594C161.968 97.0492 161.922 96.2615 161.991 78.573C162.06 62.2572 162.06 62.0997 162.543 61.4696C163.232 60.5919 164.449 60.3443 165.552 60.8844C166.93 61.5371 166.999 61.8071 166.999 67.7483V73.1044H170.904H174.809V67.5233C174.786 61.6271 174.556 59.3766 173.707 57.5313C172.696 55.2583 170.559 53.773 167.665 53.3229C165.942 53.0304 162.497 53.0529 161.027 53.3229Z" fill="black"/>
<path d="M208.162 53.4144C204.763 54.157 202.603 56.34 201.524 60.0532C201.133 61.426 201.11 62.7312 201.11 79.4071C201.11 95.8354 201.133 97.4107 201.524 98.761C202.603 102.699 204.556 104.747 208.002 105.647C209.518 106.052 214.089 106.052 215.651 105.647C218.798 104.815 220.682 102.834 221.876 99.0985C222.404 97.4107 222.542 63.9015 222.037 61.0209C221.371 57.2626 219.556 54.8547 216.593 53.7744C214.709 53.0993 210.391 52.9193 208.162 53.4144ZM212.619 60.7283C213.584 61.0659 214.089 61.8986 214.342 63.4964C214.617 65.3868 214.594 94.0125 214.319 95.7004C214.02 97.5457 213.262 98.3109 211.769 98.3109C210.46 98.3109 209.61 97.7258 209.265 96.5555C209.081 95.9929 209.035 90.4118 209.081 78.912L209.15 62.1011L209.816 61.426C210.391 60.8184 210.781 60.6383 211.7 60.5258C211.838 60.5258 212.251 60.6158 212.619 60.7283Z" fill="black"/>
<path d="M232.053 53.4144C228.654 54.1345 226.586 56.2499 225.415 60.1657C225.047 61.381 225.001 63.1138 224.932 78.2819C224.886 89.5791 224.955 95.6554 225.116 96.9156C225.759 101.732 228.011 104.635 231.893 105.647C233.386 106.052 237.98 106.052 239.473 105.647C242.827 104.77 244.825 102.609 245.813 98.761C246.066 97.7483 246.135 94.125 246.135 79.2946C246.135 59.3106 246.181 60.1207 244.756 57.3527C244.182 56.2274 242.597 54.6746 241.426 54.0895C239.542 53.1218 234.948 52.8068 232.053 53.4144ZM236.739 60.8409C238.37 61.516 238.324 60.8859 238.324 79.182C238.324 88.1614 238.256 95.8579 238.141 96.308C237.865 97.5907 236.992 98.3109 235.683 98.3109C234.351 98.3109 233.501 97.7258 233.156 96.5555C233.018 96.0154 232.926 89.8717 232.926 79.3396C232.926 61.9886 232.926 62.0561 233.983 61.1559C234.396 60.7959 234.948 60.5933 235.637 60.5258C235.798 60.5258 236.28 60.6608 236.739 60.8409Z" fill="black"/>
<path d="M0 79.4527V105.4L7.39665 105.288L14.8163 105.175L16.1256 104.545C17.7336 103.78 19.1118 102.272 19.7321 100.674C20.6279 98.334 20.6968 96.4886 20.6279 78.0574C20.536 62.9118 20.4901 60.2338 20.1915 59.2661C19.3186 56.5656 18.0322 55.0803 15.7121 54.1801C14.4258 53.685 14.0353 53.6625 7.18991 53.5725L0 53.4825V79.4527ZM10.7964 60.7289C11.3247 60.8639 11.7611 61.2015 12.0598 61.6741C12.4962 62.3942 12.5192 62.8893 12.5192 79.0701C12.5192 97.2087 12.5421 96.8712 11.2328 97.5238C10.8653 97.7263 9.94642 97.8614 9.07353 97.8614H7.58042V79.3402C7.58042 69.1456 7.64933 60.7289 7.74121 60.6614C7.97092 60.4364 9.87751 60.4814 10.7964 60.7289Z" fill="black"/>
<path d="M23.4302 79.4077V105.288L32.5037 105.333L41.5772 105.4V101.53V97.6363L36.4777 97.5913L31.3552 97.5238L31.2862 90.0298L31.2403 82.5583H35.1454H39.0504V78.62V74.6817H35.1454H31.2403V67.9304V61.179H36.1791H41.1178V57.3532V53.5275H32.274H23.4302V79.4077Z" fill="black"/>
<path d="M66.3857 79.4077V105.265L70.2908 105.333L74.1959 105.4V79.4527V53.5275H70.2908H66.3857V79.4077Z" fill="black"/>
<path d="M100.613 79.4059V105.286H104.128H107.619L107.573 90.6132C107.551 81.2963 107.619 76.0753 107.757 76.3678C107.941 76.7504 112.88 96.2168 114.189 101.685C114.442 102.743 114.74 103.981 114.878 104.431L115.108 105.286H118.301H121.517V79.4059V53.5257H117.956H114.396L114.35 67.2985L114.281 81.0713L112.581 74.1174C111.662 70.2691 110.422 65.2056 109.871 62.8651C109.296 60.5021 108.561 57.464 108.217 56.1138L107.596 53.6383L104.105 53.5707L100.613 53.5032V79.4059Z" fill="black"/>
<path d="M177.336 79.4059V105.286H181.241H185.147V93.9214V82.5566H187.788H190.43V93.9214V105.286H194.335H198.24V79.4059V53.5257H194.335H190.43V63.9903V74.4549H187.788H185.147V63.9903V53.5257H181.241H177.336V79.4059Z" fill="black"/>
<path d="M249.005 79.4059V105.286H257.734H266.463V101.348V97.4096H261.639H256.815V75.4676V53.5257H252.91H249.005V79.4059Z" fill="black"/>
</svg>
