<svg width="40" height="53" viewBox="0 0 40 53" fill="none" xmlns="http://www.w3.org/2000/svg">
<rect x="13.1787" y="2.5" width="13.2368" height="31" rx="6.61839" stroke="black" stroke-width="5"/>
<path d="M36.5941 27C36.5941 29.2325 36.1596 31.4431 35.3155 33.5056C34.4714 35.5682 33.2341 37.4422 31.6743 39.0208C30.1146 40.5994 28.2629 41.8516 26.225 42.706C24.1871 43.5603 22.0029 44 19.797 44C17.5912 44 15.407 43.5603 13.3691 42.706C11.3312 41.8516 9.47949 40.5994 7.91974 39.0208C6.35999 37.4422 5.12273 35.5682 4.2786 33.5056C3.43447 31.4431 3 29.2325 3 27" stroke="black" stroke-width="5"/>
<rect x="18.3574" y="46" width="4.79915" height="7" fill="black"/>
</svg>
