<svg width="38" height="52" viewBox="0 0 38 52" fill="none" xmlns="http://www.w3.org/2000/svg">
<rect x="11.6787" y="2" width="14.2368" height="32" rx="7.11839" stroke="black" stroke-width="4"/>
<path d="M35.5941 27C35.5941 29.2325 35.1596 31.4431 34.3155 33.5056C33.4714 35.5682 32.2341 37.4422 30.6743 39.0208C29.1146 40.5994 27.2629 41.8516 25.225 42.706C23.1871 43.5603 21.0029 44 18.797 44C16.5912 44 14.407 43.5603 12.3691 42.706C10.3312 41.8516 8.47949 40.5994 6.91974 39.0208C5.35999 37.4422 4.12273 35.5682 3.2786 33.5056C2.43447 31.4431 2 29.2325 2 27" stroke="black" stroke-width="4"/>
<path d="M16.7012 45H21.5003V52H16.7012V45Z" fill="black"/>
</svg>
