<svg width="16" height="14" viewBox="0 0 16 14" fill="none" xmlns="http://www.w3.org/2000/svg">
<path d="M14.3672 11.0312C14.6172 11.0312 14.8477 11 15.0586 10.9375C15.2773 10.875 15.4727 10.8008 15.6445 10.7148V12.7656C15.4414 12.8828 15.1523 12.9883 14.7773 13.082C14.4102 13.1836 14.0117 13.2344 13.582 13.2344C12.6055 13.2344 11.8438 12.957 11.2969 12.4023C10.7578 11.8477 10.4883 10.9844 10.4883 9.8125V2.20703H5.71875V13H2.96484V2.20703H0.292969V1L2.21484 0.0273438H15.8906V2.20703H13.2305V9.67188C13.2305 10.1484 13.3359 10.4961 13.5469 10.7148C13.7578 10.9258 14.0312 11.0312 14.3672 11.0312Z" fill="black"/>
</svg>
