<svg width="1309" height="560" viewBox="0 0 1309 560" fill="none" xmlns="http://www.w3.org/2000/svg">
<rect x="1.5" y="1.5" width="1306" height="557" rx="61.5" fill="white" stroke="black" stroke-width="3"/>
<path fill-rule="evenodd" clip-rule="evenodd" d="M116.214 85.8655C116.214 97.9871 106.495 107.731 94.6071 107.731C82.7193 107.731 73 97.9871 73 85.8655C73 73.7438 82.7193 64 94.6071 64C106.495 64 116.214 73.7438 116.214 85.8655ZM111.814 106.357C107.175 110.333 101.169 112.731 94.6071 112.731C79.9124 112.731 68 100.703 68 85.8655C68 71.0281 79.9124 59 94.6071 59C109.302 59 121.214 71.0281 121.214 85.8655C121.214 92.2685 118.996 98.1483 115.293 102.764L138.464 126.037L140.227 127.809L136.684 131.336L134.92 129.565L111.814 106.357Z" fill="black"/>
<path fill-rule="evenodd" clip-rule="evenodd" d="M120.501 339.438C120.501 347.457 114.076 353.875 106.251 353.875C98.4257 353.875 92 347.457 92 339.438C92 331.418 98.4257 325 106.251 325C114.076 325 120.501 331.418 120.501 339.438ZM118.165 354.706C114.888 357.317 110.749 358.875 106.251 358.875C95.6188 358.875 87 350.173 87 339.438C87 328.702 95.6188 320 106.251 320C116.882 320 125.501 328.702 125.501 339.438C125.501 343.819 124.066 347.862 121.643 351.113L138.471 368.014L140.235 369.786L136.692 373.314L134.928 371.542L118.165 354.706Z" fill="black"/>
<path fill-rule="evenodd" clip-rule="evenodd" d="M120.501 429.438C120.501 437.457 114.076 443.875 106.251 443.875C98.4257 443.875 92 437.457 92 429.438C92 421.418 98.4257 415 106.251 415C114.076 415 120.501 421.418 120.501 429.438ZM118.165 444.706C114.888 447.317 110.749 448.875 106.251 448.875C95.6188 448.875 87 440.173 87 429.438C87 418.702 95.6188 410 106.251 410C116.882 410 125.501 418.702 125.501 429.438C125.501 433.819 124.066 437.862 121.643 441.113L138.471 458.014L140.235 459.786L136.692 463.314L134.928 461.542L118.165 444.706Z" fill="black"/>
<rect x="1201.96" y="49.5" width="23.2034" height="47.8814" rx="11.6017" stroke="black" stroke-width="5"/>
<path d="M1240 86.6611C1240 90.0176 1239.33 93.3413 1238.02 96.4423C1236.71 99.5433 1234.8 102.361 1232.38 104.734C1229.97 107.108 1227.1 108.99 1223.95 110.275C1220.8 111.559 1217.41 112.22 1214 112.22C1210.59 112.22 1207.2 111.559 1204.05 110.275C1200.9 108.99 1198.03 107.108 1195.62 104.734C1193.2 102.361 1191.29 99.5433 1189.98 96.4423C1188.67 93.3413 1188 90.0176 1188 86.6611" stroke="black" stroke-width="5"/>
<rect x="1209" y="112" width="10" height="15" fill="black"/>
<rect x="1.5" y="175.5" width="1306" height="110" fill="#BEBCFD" stroke="black" stroke-width="3"/>
<path fill-rule="evenodd" clip-rule="evenodd" d="M120.501 232.438C120.501 240.457 114.076 246.875 106.251 246.875C98.4257 246.875 92 240.457 92 232.438C92 224.418 98.4257 218 106.251 218C114.076 218 120.501 224.418 120.501 232.438ZM118.165 247.706C114.888 250.317 110.749 251.875 106.251 251.875C95.6188 251.875 87 243.173 87 232.438C87 221.702 95.6188 213 106.251 213C116.882 213 125.501 221.702 125.501 232.438C125.501 236.819 124.066 240.862 121.643 244.113L138.471 261.014L140.235 262.786L136.692 266.314L134.928 264.542L118.165 247.706Z" fill="black"/>
<line x1="1056.77" y1="67.2322" x2="1113.34" y2="123.801" stroke="black" stroke-width="5"/>
<line y1="-2.5" x2="80" y2="-2.5" transform="matrix(-0.707107 0.707107 0.707107 0.707107 1114.13 68.521)" stroke="black" stroke-width="5"/>
</svg>
