<svg width="1297" height="112" viewBox="0 0 1297 112" fill="none" xmlns="http://www.w3.org/2000/svg">
<rect x="1.5" y="1.5" width="1046" height="109" fill="white" stroke="black" stroke-width="3"/>
<rect x="1049" width="248" height="112" fill="#706DFB"/>
<path fill-rule="evenodd" clip-rule="evenodd" d="M1186 50.5C1186 59.505 1178.5 67 1169 67C1159.5 67 1152 59.505 1152 50.5C1152 41.495 1159.5 34 1169 34C1178.5 34 1186 41.495 1186 50.5ZM1181.16 68.4172C1177.68 70.681 1173.5 72 1169 72C1156.85 72 1147 62.3741 1147 50.5C1147 38.6259 1156.85 29 1169 29C1181.15 29 1191 38.6259 1191 50.5C1191 55.8386 1189.01 60.7227 1185.71 64.4818L1202.99 81.8379L1205.11 83.9638L1200.86 88.1972L1198.74 86.0712L1181.16 68.4172Z" fill="white"/>
</svg>
