<svg width="38" height="38" viewBox="0 0 38 38" fill="none" xmlns="http://www.w3.org/2000/svg">
<path d="M31.8312 19.909V18.1343L34.0589 16.1857C34.4696 15.8239 34.739 15.3286 34.8197 14.7873C34.9004 14.2461 34.7871 13.6938 34.4998 13.228L31.7616 8.58844C31.5581 8.23614 31.2656 7.94352 30.9133 7.73993C30.561 7.53635 30.1613 7.42897 29.7543 7.42855C29.5022 7.42662 29.2514 7.46579 29.0118 7.54454L26.1924 8.49565C25.7056 8.17228 25.1978 7.88166 24.6724 7.62573L24.0807 4.70281C23.9746 4.1688 23.684 3.68911 23.2597 3.34771C22.8355 3.00631 22.3047 2.82496 21.7602 2.83539H16.3301C15.7856 2.82496 15.2548 3.00631 14.8306 3.34771C14.4063 3.68911 14.1157 4.1688 14.0096 4.70281L13.4179 7.62573C12.8887 7.8816 12.3771 8.17221 11.8863 8.49565L9.12493 7.49814C8.88278 7.43507 8.63202 7.41157 8.38236 7.42855C7.97543 7.42897 7.57576 7.53635 7.22345 7.73993C6.87114 7.94352 6.57858 8.23614 6.37511 8.58844L3.6369 13.228C3.36608 13.6931 3.26544 14.2379 3.35223 14.769C3.43901 15.3001 3.70782 15.7845 4.11261 16.1393L6.3055 18.1459V19.9206L4.11261 21.8692C3.69638 22.2264 3.42023 22.7195 3.33314 23.261C3.24606 23.8024 3.35367 24.3572 3.6369 24.8269L6.37511 29.4664C6.57858 29.8187 6.87114 30.1114 7.22345 30.3149C7.57576 30.5185 7.97543 30.6259 8.38236 30.6263C8.63454 30.6283 8.88536 30.5891 9.12493 30.5103L11.9444 29.5592C12.4311 29.8826 12.9389 30.1732 13.4643 30.4291L14.056 33.3521C14.1621 33.8861 14.4527 34.3658 14.877 34.7072C15.3012 35.0486 15.832 35.2299 16.3766 35.2195H21.853C22.3975 35.2299 22.9283 35.0486 23.3526 34.7072C23.7768 34.3658 24.0674 33.8861 24.1735 33.3521L24.7652 30.4291C25.2944 30.1733 25.806 29.8827 26.2968 29.5592L29.1046 30.5103C29.3442 30.5891 29.595 30.6283 29.8472 30.6263C30.2541 30.6259 30.6538 30.5185 31.0061 30.3149C31.3584 30.1114 31.651 29.8187 31.8544 29.4664L34.4998 24.8269C34.7706 24.3618 34.8713 23.817 34.7845 23.2859C34.6977 22.7548 34.4289 22.2703 34.0241 21.9156L31.8312 19.909ZM29.7543 28.3066L25.7747 26.9611C24.843 27.7499 23.7783 28.3666 22.6304 28.7821L21.8066 32.9461H16.3301L15.5064 28.8285C14.3675 28.4012 13.3085 27.7856 12.3737 27.0075L8.38236 28.3066L5.64415 23.667L8.80006 20.8833C8.58552 19.6826 8.58552 18.4535 8.80006 17.2528L5.64415 14.3879L8.38236 9.74833L12.3621 11.0938C13.2937 10.3049 14.3584 9.68831 15.5064 9.27277L16.3301 5.10877H21.8066L22.6304 9.22638C23.7692 9.65371 24.8282 10.2693 25.7631 11.0474L29.7543 9.74833L32.4926 14.3879L29.3367 17.1716C29.5512 18.3723 29.5512 19.6014 29.3367 20.8021L32.4926 23.667L29.7543 28.3066Z" fill="#2C2C2C"/>
<path d="M19.0685 25.987C17.6916 25.987 16.3457 25.5789 15.2009 24.8142C14.056 24.0495 13.1638 22.9626 12.6369 21.6909C12.1099 20.4193 11.9721 19.02 12.2407 17.67C12.5093 16.32 13.1723 15.08 14.1459 14.1067C15.1195 13.1334 16.36 12.4706 17.7104 12.2021C19.0608 11.9336 20.4605 12.0714 21.7326 12.5981C23.0046 13.1248 24.0919 14.0168 24.8568 15.1613C25.6218 16.3058 26.0301 17.6513 26.0301 19.0277C26.0394 19.9442 25.8657 20.8533 25.5191 21.7019C25.1725 22.5504 24.6601 23.3213 24.0118 23.9694C23.3635 24.6175 22.5924 25.1298 21.7435 25.4762C20.8947 25.8227 19.9853 25.9963 19.0685 25.987ZM19.0685 14.3881C18.4551 14.3739 17.8452 14.4841 17.2757 14.7122C16.7061 14.9403 16.1888 15.2815 15.755 15.7152C15.3211 16.1489 14.9798 16.6661 14.7516 17.2355C14.5234 17.8048 14.4132 18.4145 14.4275 19.0277C14.4132 19.6409 14.5234 20.2506 14.7516 20.8199C14.9798 21.3893 15.3211 21.9065 15.755 22.3402C16.1888 22.7739 16.7061 23.1151 17.2757 23.3432C17.8452 23.5713 18.4551 23.6815 19.0685 23.6673C19.6819 23.6815 20.2918 23.5713 20.8613 23.3432C21.4308 23.1151 21.9482 22.7739 22.382 22.3402C22.8159 21.9065 23.1572 21.3893 23.3854 20.8199C23.6135 20.2506 23.7238 19.6409 23.7095 19.0277C23.7238 18.4145 23.6135 17.8048 23.3854 17.2355C23.1572 16.6661 22.8159 16.1489 22.382 15.7152C21.9482 15.2815 21.4308 14.9403 20.8613 14.7122C20.2918 14.4841 19.6819 14.3739 19.0685 14.3881Z" fill="#2C2C2C"/>
</svg>
