<svg width="27" height="26" viewBox="0 0 27 26" fill="none" xmlns="http://www.w3.org/2000/svg">
<path fill-rule="evenodd" clip-rule="evenodd" d="M24.7671 0.323242C25.5558 0.323242 26.1952 0.962636 26.1952 1.75137V12.5056H26.186V12.5429H14.8848C14.096 12.5429 13.4566 11.9036 13.4566 11.1148C13.4566 10.3261 14.096 9.6867 14.8848 9.6867H21.533C20.2087 6.07751 16.7409 3.50161 12.6703 3.50161C7.45746 3.50161 3.2332 7.72584 3.2332 12.9348C3.2332 18.1437 7.45746 22.3679 12.6703 22.3679C17.1125 22.3679 20.8368 19.3003 21.8409 15.1698H24.7608C23.7095 20.8899 18.6962 25.2242 12.6703 25.2242C5.88086 25.2242 0.376953 19.722 0.376953 12.9348C0.376953 6.14751 5.88086 0.645363 12.6703 0.645363C17.2348 0.645363 21.2184 3.13232 23.339 6.82474V1.75137C23.339 0.962636 23.9784 0.323242 24.7671 0.323242Z" fill="black"/>
</svg>
