<svg width="59" height="60" viewBox="0 0 59 60" fill="none" xmlns="http://www.w3.org/2000/svg">
<path fill-rule="evenodd" clip-rule="evenodd" d="M39 21.5C39 30.505 31.4978 38 22 38C12.5022 38 5 30.505 5 21.5C5 12.495 12.5022 5 22 5C31.4978 5 39 12.495 39 21.5ZM34.1645 39.4172C30.6802 41.681 26.4977 43 22 43C9.84974 43 0 33.3741 0 21.5C0 9.62588 9.84974 0 22 0C34.1503 0 44 9.62588 44 21.5C44 26.8386 42.009 31.7227 38.7131 35.4818L55.9932 52.8379L58.1099 54.9638L53.858 59.1972L51.7413 57.0712L34.1645 39.4172Z" fill="white"/>
</svg>
