<svg width="402" height="408" viewBox="0 0 402 408" fill="none" xmlns="http://www.w3.org/2000/svg">
<mask id="path-1-inside-1_1011_910" fill="white">
<path fill-rule="evenodd" clip-rule="evenodd" d="M16 0C7.16344 0 0 7.16343 0 16V39.8564V40.6375V408H402V40.6375V39.8564V16C402 7.16344 394.837 0 386 0H16Z"/>
</mask>
<path fill-rule="evenodd" clip-rule="evenodd" d="M16 0C7.16344 0 0 7.16343 0 16V39.8564V40.6375V408H402V40.6375V39.8564V16C402 7.16344 394.837 0 386 0H16Z" fill="white"/>
<path d="M0 408H-3V411H0V408ZM402 408V411H405V408H402ZM3 16C3 8.82029 8.8203 3 16 3V-3C5.50659 -3 -3 5.50658 -3 16H3ZM3 39.8564V16H-3V39.8564H3ZM-3 39.8564V40.6375H3V39.8564H-3ZM-3 40.6375V408H3V40.6375H-3ZM0 411H402V405H0V411ZM405 408V40.6375H399V408H405ZM405 40.6375V39.8564H399V40.6375H405ZM399 16V39.8564H405V16H399ZM386 3C393.18 3 399 8.8203 399 16H405C405 5.50659 396.493 -3 386 -3V3ZM16 3H386V-3H16V3Z" fill="black" mask="url(#path-1-inside-1_1011_910)"/>
<line y1="-1.28417" x2="28.9818" y2="-1.28417" transform="matrix(0.706133 0.708079 -0.706133 0.708079 359 22)" stroke="black" stroke-width="2.56834"/>
<line y1="-1.28417" x2="28.9818" y2="-1.28417" transform="matrix(0.706133 -0.708079 0.706133 0.708079 360.206 42.5215)" stroke="black" stroke-width="2.56834"/>
</svg>
