<svg width="510" height="604" viewBox="0 0 510 604" fill="none" xmlns="http://www.w3.org/2000/svg">
<rect x="-1.5" y="1.5" width="386" height="386" transform="matrix(-1 0 0 1 463 0)" fill="#D9D9D9" stroke="black" stroke-width="3"/>
<rect x="79.5" y="1.5" width="385" height="51" fill="#A2A0A0" stroke="black" stroke-width="3"/>
<rect x="-0.5" y="0.5" width="388" height="388" transform="matrix(-1 0 0 1 491 21)" fill="#D9D9D9" stroke="black"/>
<rect x="105.5" y="22.5" width="385" height="51" fill="#A2A0A0" stroke="black" stroke-width="3"/>
<rect x="-1.5" y="1.5" width="386" height="386" transform="matrix(-1 0 0 1 507 42)" fill="#D9D9D9" stroke="black" stroke-width="3"/>
<rect x="123.5" y="43.5" width="385" height="51" fill="#A2A0A0" stroke="black" stroke-width="3"/>
<rect x="-1.5" y="1.5" width="386" height="386" transform="matrix(-1 0 0 1 476 69)" fill="#D9D9D9" stroke="black" stroke-width="3"/>
<rect x="92.5" y="70.5" width="385" height="51" fill="#A2A0A0" stroke="black" stroke-width="3"/>
<rect x="-1.5" y="1.5" width="386" height="386" transform="matrix(-1 0 0 1 448 105)" fill="#D9D9D9" stroke="black" stroke-width="3"/>
<rect x="64.5" y="106.5" width="385" height="51" fill="#A2A0A0" stroke="black" stroke-width="3"/>
<rect x="-1.5" y="1.5" width="386" height="386" transform="matrix(-1 0 0 1 420 142)" fill="#D9D9D9" stroke="black" stroke-width="3"/>
<rect x="36.5" y="143.5" width="385" height="51" fill="#A2A0A0" stroke="black" stroke-width="3"/>
<line x1="388.707" y1="158.293" x2="405.678" y2="175.263" stroke="black" stroke-width="2"/>
<line x1="388.293" y1="175.264" x2="405.263" y2="158.293" stroke="black" stroke-width="2"/>
<rect x="-1.5" y="1.5" width="386" height="386" transform="matrix(-1 0 0 1 386 169)" fill="#D9D9D9" stroke="black" stroke-width="3"/>
<rect x="2.5" y="170.5" width="385" height="51" fill="#A2A0A0" stroke="black" stroke-width="3"/>
<line x1="354.707" y1="185.293" x2="371.678" y2="202.263" stroke="black" stroke-width="2"/>
<line x1="354.293" y1="202.264" x2="371.263" y2="185.293" stroke="black" stroke-width="2"/>
<rect x="-1.5" y="1.5" width="386" height="386" transform="matrix(-1 0 0 1 429 215)" fill="#D9D9D9" stroke="black" stroke-width="3"/>
<rect x="45.5" y="216.5" width="385" height="51" fill="#A2A0A0" stroke="black" stroke-width="3"/>
<line x1="397.707" y1="231.293" x2="414.678" y2="248.263" stroke="black" stroke-width="2"/>
<line x1="397.293" y1="248.264" x2="414.263" y2="231.293" stroke="black" stroke-width="2"/>
</svg>
