<svg width="474" height="220" viewBox="0 0 474 220" fill="none" xmlns="http://www.w3.org/2000/svg">
<rect x="1.5" y="1.5" width="471" height="217" rx="1.5" fill="#ECECEC" stroke="black" stroke-width="3"/>
<rect x="1.5" y="1.5" width="471" height="51" fill="#A2A0A0" stroke="black" stroke-width="3"/>
<line y1="-1.5" x2="34.9038" y2="-1.5" transform="matrix(-1 -8.76636e-08 -8.71826e-08 1 349.904 41)" stroke="black" stroke-width="3"/>
<rect x="376.335" y="18.5" width="20.9341" height="21" stroke="black" stroke-width="3"/>
<path fill-rule="evenodd" clip-rule="evenodd" d="M383 15H400.755V32.8214H398.591V35.8214H400.755H403.755V32.8214V15V12H400.755H383H380V15V17.1787H383V15Z" fill="black"/>
<line y1="-1.5" x2="33.8529" y2="-1.5" transform="matrix(0.706133 0.708079 -0.706133 0.708079 428.687 17)" stroke="black" stroke-width="3"/>
<line y1="-1.5" x2="33.8529" y2="-1.5" transform="matrix(0.706133 -0.708079 0.706133 0.708079 430.096 40.9707)" stroke="black" stroke-width="3"/>
</svg>
