<svg width="687" height="469" viewBox="0 0 687 469" fill="none" xmlns="http://www.w3.org/2000/svg">
<rect y="9" width="674" height="460" fill="black"/>
<rect x="15.5" y="1.5" width="670" height="455" fill="white" stroke="black" stroke-width="3"/>
<rect x="15.5" y="1.5" width="670" height="51" fill="#C3C3C3" stroke="black" stroke-width="3"/>
<line y1="-1.5" x2="34.9038" y2="-1.5" transform="matrix(-1 -8.76636e-08 -8.71826e-08 1 557.904 41)" stroke="black" stroke-width="3"/>
<rect x="584.335" y="18.5" width="20.9341" height="21" stroke="black" stroke-width="3"/>
<path fill-rule="evenodd" clip-rule="evenodd" d="M591 15H608.755V32.8214H606.591V35.8214H608.755H611.755V32.8214V15V12H608.755H591H588V15V17.1787H591V15Z" fill="black"/>
<line y1="-1.5" x2="33.8529" y2="-1.5" transform="matrix(0.706133 0.708079 -0.706133 0.708079 636.687 17)" stroke="black" stroke-width="3"/>
<line y1="-1.5" x2="33.8529" y2="-1.5" transform="matrix(0.706133 -0.708079 0.706133 0.708079 638.096 40.9707)" stroke="black" stroke-width="3"/>
</svg>
