<svg width="487" height="260" viewBox="0 0 487 260" fill="none" xmlns="http://www.w3.org/2000/svg">
<rect y="13" width="475" height="247" fill="black"/>
<rect x="14.5" y="1.5" width="471" height="245" rx="1.5" fill="#ECECEC" stroke="black" stroke-width="3"/>
<rect x="14.5" y="1.5" width="471" height="51" fill="#C3C3C3" stroke="black" stroke-width="3"/>
<line y1="-1.5" x2="34.9038" y2="-1.5" transform="matrix(-1 -8.76636e-08 -8.71826e-08 1 362.904 42)" stroke="black" stroke-width="3"/>
<rect x="389.335" y="19.5" width="20.9341" height="21" stroke="black" stroke-width="3"/>
<path fill-rule="evenodd" clip-rule="evenodd" d="M396 16H413.755V33.8214H411.591V36.8214H413.755H416.755V33.8214V16V13H413.755H396H393V16V18.1787H396V16Z" fill="black"/>
<line y1="-1.5" x2="33.8529" y2="-1.5" transform="matrix(0.706133 0.708079 -0.706133 0.708079 441.687 18)" stroke="black" stroke-width="3"/>
<line y1="-1.5" x2="33.8529" y2="-1.5" transform="matrix(0.706133 -0.708079 0.706133 0.708079 443.096 41.9707)" stroke="black" stroke-width="3"/>
</svg>
